<svg xmlns="http://www.w3.org/2000/svg" enable-background="new 0 0 2500 2500" viewBox="0 0 2500 2500" id="coming-soon"><path d="M1667.16 1061.74c.7 1.63 1.36 3.99 1.98 7.07.62 3.09.86 5.73.73 7.93-.13 2.2-.73 3.64-1.77 4.32-.76.49-1.87.59-3.33.31-1.46-.28-3.27-.43-5.43-.44-2.17-.01-4.76.34-7.79 1.08-3.03.73-6.5 2.36-10.4 4.88-4.31 2.78-7.87 6.18-10.68 10.18-2.82 4.01-5.02 8.32-6.6 12.94-1.58 4.62-2.64 9.44-3.16 14.46-.52 5.01-.62 9.94-.29 14.78.33 4.83 1.01 9.43 2.02 13.79 1.02 4.36 2.25 8.22 3.7 11.59 1.75 4.07 3.8 7.31 6.13 9.74 2.34 2.42 4.91 4.03 7.71 4.82 2.8.79 5.81.8 9.04.01 3.24-.79 6.6-2.31 10.09-4.56 4.14-2.67 7.49-5.39 10.05-8.16 2.57-2.77 4.66-5.35 6.28-7.73 1.61-2.38 2.92-4.45 3.91-6.2.99-1.75 2.04-2.99 3.15-3.7.76-.49 1.39-.54 1.89-.16.5.38.96 1.07 1.39 2.06.17.41.38 1.05.61 1.94.23.89.48 1.9.74 3.03.26 1.13.54 2.37.81 3.71.28 1.34.49 2.62.64 3.82.15 1.2.21 2.35.19 3.44-.02 1.09-.2 2.16-.57 3.21-.36 1.05-1.26 2.69-2.69 4.91-1.43 2.22-3.29 4.63-5.6 7.23-2.3 2.6-5.02 5.3-8.13 8.09-3.11 2.79-6.59 5.43-10.43 7.91-6.35 4.1-12.44 6.95-18.25 8.55-5.82 1.61-11.24 1.84-16.27.7-5.03-1.13-9.61-3.67-13.76-7.6-4.14-3.93-7.7-9.36-10.68-16.27-2.32-5.41-4.18-11.38-5.59-17.94-1.41-6.55-2.19-13.34-2.34-20.37-.16-7.03.41-14.15 1.7-21.36 1.29-7.21 3.47-14.21 6.54-20.99 3.07-6.78 7.12-13.19 12.14-19.25 5.02-6.06 11.17-11.44 18.45-16.14 4.08-2.63 8.11-4.7 12.12-6.21 4-1.51 7.66-2.43 10.96-2.79 3.31-.35 5.75-.31 7.31.13C1665.26 1058.91 1666.41 1060 1667.16 1061.74zM1787.19 1018.56c2.2 5.12 4.08 10.88 5.64 17.29 1.57 6.41 2.55 13.15 2.94 20.21s.02 14.29-1.1 21.7c-1.13 7.41-3.26 14.67-6.38 21.77-3.13 7.1-7.44 13.95-12.93 20.54-5.5 6.59-12.42 12.58-20.74 17.95-7.05 4.55-13.6 7.78-19.66 9.68-6.06 1.91-11.64 2.43-16.73 1.56-5.1-.87-9.65-3.16-13.67-6.88-4.01-3.71-7.46-8.92-10.33-15.6-2.35-5.46-4.32-11.48-5.92-18.06-1.6-6.58-2.57-13.41-2.9-20.51-.34-7.1.1-14.34 1.32-21.73 1.21-7.39 3.38-14.62 6.52-21.69 3.13-7.07 7.44-13.84 12.92-20.31 5.47-6.47 12.32-12.35 20.53-17.65 7.04-4.55 13.6-7.76 19.68-9.64 6.07-1.88 11.65-2.36 16.73-1.44 5.08.92 9.64 3.26 13.68 7.04C1780.82 1006.56 1784.29 1011.82 1787.19 1018.56zM1763.84 1036.41c-1.52-3.54-3.3-6.5-5.32-8.87-2.02-2.37-4.33-3.98-6.93-4.83-2.6-.84-5.54-.9-8.82-.15-3.29.75-6.97 2.44-11.05 5.07-5.07 3.27-9.11 7.12-12.11 11.55-3 4.43-5.26 9.13-6.77 14.11s-2.35 10.11-2.53 15.39c-.19 5.28.03 10.37.65 15.28.62 4.91 1.53 9.5 2.74 13.77 1.2 4.27 2.44 7.89 3.71 10.85 1.55 3.6 3.33 6.58 5.34 8.91 2.01 2.34 4.32 3.91 6.93 4.71 2.62.8 5.56.81 8.83.03 3.27-.77 6.97-2.5 11.11-5.17 5.01-3.23 9.02-7.05 12.04-11.45 3.02-4.4 5.27-9.06 6.76-14 1.49-4.93 2.33-10.02 2.53-15.27.2-5.25-.01-10.31-.62-15.19-.61-4.88-1.51-9.45-2.72-13.73C1766.43 1043.17 1765.17 1039.49 1763.84 1036.41zM1956.76 1001.07c.08.7.04 1.39-.11 2.08s-.58 1.46-1.3 2.29c-.72.84-1.78 1.8-3.17 2.88-1.39 1.08-3.17 2.32-5.32 3.71-2.27 1.47-4.14 2.57-5.6 3.34-1.46.76-2.63 1.23-3.51 1.43-.88.2-1.52.13-1.93-.2-.41-.33-.67-.83-.81-1.49l-21.1-103.63-.18.11-11.86 124.8c-.07 1.9-1.01 3.75-2.81 5.54-1.8 1.79-4.53 3.87-8.2 6.24-3.78 2.44-6.65 3.87-8.6 4.27s-3.16.13-3.65-.82l-52.8-83.39-.17.11 21.06 103.78c.13.66.11 1.34-.07 2.05-.18.71-.63 1.48-1.35 2.32-.72.84-1.76 1.79-3.13 2.85-1.37 1.06-3.15 2.31-5.36 3.74-2.21 1.43-4.05 2.52-5.51 3.28-1.46.76-2.63 1.23-3.52 1.43-.88.2-1.54.14-1.97-.17-.43-.31-.69-.82-.76-1.51l-23.11-113.48c-.33-1.64-.44-3.24-.33-4.8.11-1.56.45-3.02 1.02-4.39.56-1.37 1.34-2.63 2.33-3.79.99-1.16 2.15-2.17 3.5-3.04l14.33-9.25c2.56-1.65 4.84-2.84 6.83-3.57 1.99-.73 3.8-.95 5.41-.65 1.61.29 3.09 1.09 4.42 2.38 1.34 1.29 2.63 3.05 3.89 5.29l39.77 60.07.43-.28 9.93-92.16c.19-3.02.52-5.73.97-8.14.45-2.41 1.16-4.61 2.13-6.61.96-1.99 2.21-3.8 3.75-5.43 1.53-1.62 3.5-3.2 5.88-4.75l16.25-10.49c1.46-.94 2.79-1.54 4.02-1.82 1.22-.27 2.31-.21 3.26.18.95.39 1.74 1.1 2.37 2.14.64 1.04 1.15 2.36 1.54 3.96L1956.76 1001.07zM2004.46 970.29c.13.66.07 1.37-.2 2.13-.27.77-.82 1.6-1.65 2.51-.84.91-1.98 1.93-3.43 3.05-1.45 1.12-3.28 2.4-5.5 3.82-2.27 1.47-4.15 2.58-5.64 3.36-1.49.78-2.7 1.28-3.65 1.52-.94.24-1.65.21-2.15-.06-.49-.28-.77-.76-.85-1.46l-24.46-120.51c-.19-.62-.14-1.32.15-2.11.29-.78.86-1.63 1.69-2.54.84-.91 1.97-1.92 3.39-3.02 1.42-1.1 3.24-2.37 5.45-3.8 2.21-1.43 4.06-2.53 5.55-3.31 1.49-.78 2.72-1.29 3.69-1.55.97-.25 1.69-.23 2.15.06.46.29.76.77.89 1.43L2004.46 970.29zM2120.59 888.97c.34 1.49.4 2.97.18 4.45-.22 1.48-.63 2.86-1.24 4.14-.6 1.28-1.37 2.43-2.31 3.44-.94 1.02-1.99 1.9-3.16 2.65l-9.78 6.32c-2.1 1.35-3.9 2.26-5.41 2.72-1.52.46-2.98.47-4.39.05-1.41-.43-2.88-1.29-4.41-2.61-1.53-1.31-3.31-3.1-5.32-5.37l-38.34-39.61c-2.96-3.06-5.82-6.23-8.6-9.49-2.78-3.25-5.5-6.51-8.16-9.77l-.17.11c1.39 4.97 2.66 9.92 3.82 14.85 1.15 4.94 2.22 9.94 3.22 15.02l13.23 65.06c.13.66.08 1.36-.15 2.11-.24.75-.73 1.55-1.48 2.4-.75.85-1.77 1.81-3.06 2.87-1.29 1.06-2.96 2.25-5 3.56-2.04 1.32-3.75 2.31-5.14 2.98-1.38.67-2.49 1.09-3.31 1.25-.83.16-1.44.08-1.84-.26-.41-.33-.64-.85-.72-1.54l-23.26-114.6c-.65-3.07-.34-5.89.94-8.46 1.28-2.57 3.08-4.61 5.41-6.11l11.97-7.73c1.92-1.24 3.66-2.08 5.21-2.53 1.55-.45 3.02-.5 4.4-.16 1.37.34 2.74 1.03 4.12 2.07 1.38 1.04 2.86 2.46 4.45 4.25l38.7 39.94c2.51 2.54 4.9 5.12 7.17 7.73 2.28 2.61 4.6 5.2 6.96 7.76l.17-.11c-1.16-4.6-2.3-9.37-3.42-14.33-1.13-4.95-2.18-9.78-3.16-14.5l-12.11-60.11c-.13-.65-.09-1.33.13-2.03s.7-1.45 1.43-2.26c.73-.8 1.74-1.71 3.01-2.72 1.28-1.01 2.93-2.17 4.97-3.49 2.04-1.32 3.76-2.34 5.16-3.05 1.4-.72 2.51-1.17 3.32-1.37.81-.19 1.43-.14 1.85.15.42.29.7.76.83 1.41L2120.59 888.97zM2214.28 710.01c.25.58.53 1.36.84 2.35.32.99.6 2.08.86 3.29.26 1.21.47 2.44.64 3.71.17 1.27.24 2.46.21 3.6-.03 1.13-.18 2.14-.43 3.01-.26.87-.65 1.47-1.18 1.81-.87.56-2.31.86-4.31.89-1.99.03-4.51.24-7.54.63-3.03.4-6.56 1.27-10.6 2.61-4.03 1.34-8.53 3.61-13.48 6.8-4.95 3.2-9.18 6.84-12.71 10.93-3.52 4.09-6.46 8.47-8.8 13.14-2.34 4.67-4.1 9.51-5.25 14.53-1.15 5.01-1.79 10.01-1.92 14.99-.13 4.98.26 9.82 1.16 14.51.9 4.69 2.21 9.04 3.93 13.05 1.92 4.48 4.25 7.98 6.98 10.53 2.73 2.54 5.79 4.17 9.18 4.88 3.39.71 7.06.53 10.99-.53 3.93-1.05 8.03-2.95 12.28-5.7 2.85-1.84 5.56-3.95 8.1-6.34 2.55-2.38 4.76-4.93 6.65-7.63l-5.96-29.45-21.32 13.76c-.7.45-1.37.53-2.02.24-.64-.29-1.23-1.04-1.76-2.26-.25-.58-.51-1.37-.8-2.38-.28-1-.54-2.08-.77-3.23-.24-1.15-.43-2.34-.59-3.57-.16-1.23-.19-2.4-.11-3.49.09-1.09.28-2.07.58-2.94.3-.86.77-1.5 1.41-1.91l38.18-24.64c1.92-1.24 3.56-1.49 4.93-.73 1.37.75 2.32 2.44 2.85 5.07l10.32 51.02c.24 1.25.35 2.39.34 3.4-.01 1.01-.17 2.02-.48 3.04-.34 1.11-1.47 2.9-3.39 5.36-1.92 2.46-4.35 5.24-7.3 8.33-2.95 3.09-6.35 6.29-10.21 9.6s-7.94 6.35-12.25 9.14c-8.1 5.23-15.63 8.9-22.6 11.02-6.97 2.13-13.34 2.69-19.09 1.68-5.75-1-10.85-3.48-15.3-7.44-4.46-3.96-8.18-9.42-11.17-16.39-2.7-6.27-4.66-12.88-5.89-19.81-1.23-6.92-1.66-13.98-1.29-21.16.37-7.18 1.56-14.37 3.56-21.57 2-7.19 4.91-14.18 8.74-20.95 3.82-6.77 8.56-13.19 14.21-19.25 5.66-6.06 12.32-11.57 20.01-16.54 4.25-2.74 8.41-5 12.48-6.78 4.07-1.77 7.81-3.15 11.23-4.13 3.41-.98 6.37-1.57 8.88-1.78 2.51-.21 4.24-.23 5.17-.05.93.18 1.67.57 2.23 1.17C2213.29 708.04 2213.81 708.9 2214.28 710.01zM1865.36 1204.58c.2.47.44 1.16.73 2.09.29.93.57 1.97.84 3.13.28 1.16.51 2.36.71 3.6.2 1.25.3 2.44.31 3.58.01 1.15-.1 2.16-.31 3.04-.21.88-.58 1.49-1.11 1.83-.82.53-1.99.82-3.53.88-1.53.06-3.37.24-5.51.55-2.14.31-4.56.86-7.26 1.68-2.7.82-5.56 2.2-8.59 4.15-3.14 2.03-5.62 4.19-7.43 6.47-1.81 2.28-3.1 4.59-3.89 6.91-.78 2.33-1.13 4.59-1.04 6.8.09 2.21.53 4.21 1.3 6.01.9 2.09 2.22 3.6 3.95 4.52 1.74.92 3.77 1.5 6.1 1.74 2.34.24 4.9.27 7.69.11 2.79-.17 5.64-.3 8.54-.39 2.9-.09 5.82-.03 8.78.18 2.96.21 5.77.84 8.45 1.89 2.68 1.05 5.16 2.65 7.42 4.79 2.25 2.14 4.18 5.05 5.75 8.7 2.35 5.46 3.42 11.25 3.22 17.35-.2 6.11-1.59 12.2-4.14 18.27-2.56 6.07-6.28 11.95-11.17 17.62-4.89 5.68-10.83 10.77-17.81 15.28-3.79 2.44-7.41 4.4-10.87 5.85-3.47 1.46-6.62 2.55-9.47 3.28-2.85.73-5.32 1.15-7.43 1.28-2.1.13-3.75.02-4.93-.32-1.19-.34-2.16-1.39-2.91-3.13-.2-.46-.44-1.2-.72-2.2-.28-1-.56-2.11-.81-3.32-.26-1.21-.49-2.47-.68-3.79-.2-1.32-.29-2.58-.28-3.77.01-1.19.13-2.24.38-3.14.24-.9.66-1.54 1.24-1.91.99-.64 2.36-.95 4.12-.93 1.75.02 3.88-.09 6.38-.33 2.5-.24 5.35-.8 8.54-1.67 3.2-.88 6.74-2.57 10.64-5.09 3.43-2.22 6.26-4.6 8.48-7.14 2.22-2.54 3.87-5.14 4.97-7.78 1.1-2.64 1.67-5.25 1.71-7.84.04-2.59-.45-5.07-1.48-7.45-.92-2.15-2.25-3.7-4.01-4.65-1.75-.95-3.77-1.55-6.08-1.81-2.3-.25-4.81-.29-7.52-.1-2.71.19-5.5.32-8.37.39-2.87.07-5.75 0-8.63-.22-2.88-.22-5.65-.86-8.3-1.93-2.66-1.07-5.12-2.69-7.39-4.86-2.27-2.17-4.22-5.15-5.84-8.93-2.25-5.23-3.27-10.73-3.07-16.5.2-5.77 1.48-11.44 3.84-17.01 2.37-5.57 5.76-10.92 10.18-16.04 4.42-5.12 9.74-9.69 15.98-13.71 2.91-1.88 5.77-3.45 8.58-4.7 2.81-1.25 5.44-2.25 7.87-2.97 2.44-.72 4.59-1.16 6.46-1.33 1.87-.16 3.2-.16 4.03.02.81.18 1.49.48 2.02.93C1864.49 1202.96 1864.96 1203.65 1865.36 1204.58zM1994.83 1158.19c2.2 5.12 4.08 10.88 5.65 17.29 1.57 6.41 2.55 13.15 2.94 20.21.39 7.06.02 14.29-1.11 21.7-1.13 7.41-3.26 14.67-6.37 21.77-3.13 7.1-7.44 13.95-12.93 20.54-5.5 6.59-12.41 12.58-20.74 17.95-7.05 4.55-13.6 7.78-19.66 9.68-6.06 1.91-11.64 2.43-16.74 1.56-5.1-.87-9.65-3.16-13.67-6.88-4.01-3.71-7.46-8.92-10.33-15.6-2.35-5.46-4.32-11.48-5.92-18.06-1.6-6.58-2.57-13.41-2.9-20.51-.33-7.1.11-14.34 1.32-21.73 1.21-7.39 3.39-14.62 6.52-21.69 3.13-7.07 7.44-13.84 12.92-20.31 5.47-6.47 12.32-12.35 20.53-17.65 7.05-4.55 13.61-7.76 19.68-9.64 6.07-1.88 11.65-2.36 16.73-1.44 5.08.92 9.64 3.26 13.68 7.04C1988.46 1146.19 1991.93 1151.45 1994.83 1158.19zM1971.49 1176.05c-1.52-3.55-3.3-6.5-5.32-8.87-2.02-2.37-4.33-3.98-6.93-4.83-2.6-.85-5.53-.9-8.82-.15-3.29.75-6.97 2.44-11.05 5.07-5.06 3.27-9.1 7.12-12.11 11.55-3.01 4.43-5.27 9.13-6.77 14.11-1.5 4.98-2.35 10.11-2.54 15.39-.19 5.28.03 10.38.66 15.28.62 4.91 1.53 9.5 2.73 13.77 1.2 4.27 2.45 7.89 3.72 10.85 1.55 3.6 3.33 6.58 5.34 8.91 2.01 2.34 4.32 3.91 6.93 4.71 2.61.8 5.55.81 8.83.04 3.27-.78 6.97-2.5 11.11-5.17 5.01-3.23 9.02-7.05 12.04-11.45 3.02-4.4 5.27-9.06 6.76-14 1.49-4.93 2.33-10.02 2.53-15.28.19-5.25-.01-10.31-.62-15.19-.61-4.88-1.51-9.45-2.72-13.73C1974.07 1182.8 1972.81 1179.13 1971.49 1176.05zM2114.42 1081c2.2 5.12 4.08 10.88 5.64 17.29s2.55 13.15 2.94 20.21c.39 7.06.02 14.3-1.1 21.71-1.13 7.41-3.26 14.67-6.38 21.77-3.12 7.1-7.44 13.95-12.93 20.54-5.5 6.59-12.41 12.58-20.74 17.95-7.05 4.55-13.6 7.78-19.66 9.68-6.06 1.91-11.64 2.43-16.73 1.56-5.1-.87-9.65-3.16-13.67-6.88-4.02-3.71-7.46-8.92-10.33-15.6-2.35-5.46-4.33-11.48-5.92-18.06-1.6-6.58-2.57-13.41-2.9-20.51-.34-7.1.11-14.34 1.32-21.73 1.21-7.39 3.38-14.62 6.52-21.69 3.13-7.07 7.44-13.84 12.92-20.31 5.47-6.47 12.32-12.35 20.53-17.65 7.04-4.55 13.61-7.76 19.68-9.64 6.08-1.88 11.65-2.36 16.73-1.45 5.08.92 9.64 3.26 13.68 7.04C2108.05 1069 2111.52 1074.26 2114.42 1081zM2091.07 1098.85c-1.52-3.55-3.3-6.5-5.32-8.87-2.02-2.37-4.33-3.98-6.93-4.83-2.59-.85-5.54-.9-8.82-.15-3.29.75-6.97 2.44-11.05 5.07-5.07 3.27-9.1 7.12-12.11 11.55-3 4.43-5.26 9.13-6.77 14.11-1.5 4.98-2.35 10.11-2.53 15.39-.19 5.28.03 10.38.65 15.28.62 4.91 1.53 9.5 2.74 13.77 1.2 4.27 2.44 7.89 3.71 10.85 1.55 3.6 3.33 6.58 5.34 8.91 2.01 2.34 4.32 3.91 6.93 4.71 2.62.8 5.55.81 8.83.04 3.27-.78 6.97-2.5 11.11-5.17 5.01-3.23 9.03-7.05 12.04-11.45 3.02-4.4 5.27-9.06 6.76-14 1.49-4.93 2.33-10.02 2.53-15.27.19-5.25-.01-10.31-.62-15.19-.6-4.88-1.51-9.45-2.72-13.72C2093.66 1105.61 2092.39 1101.93 2091.07 1098.85zM2243.77 1083.13c.34 1.49.4 2.97.18 4.45-.22 1.48-.63 2.86-1.23 4.14-.6 1.28-1.37 2.43-2.32 3.44-.94 1.02-1.99 1.9-3.15 2.65l-9.78 6.32c-2.1 1.35-3.9 2.26-5.42 2.71-1.52.46-2.98.48-4.39.05-1.41-.43-2.88-1.29-4.41-2.61-1.53-1.31-3.3-3.1-5.32-5.37l-38.34-39.61c-2.96-3.06-5.82-6.23-8.6-9.48-2.78-3.26-5.5-6.51-8.16-9.77l-.17.11c1.39 4.97 2.66 9.92 3.82 14.85 1.15 4.94 2.23 9.94 3.22 15.02l13.23 65.06c.13.66.08 1.36-.16 2.11-.24.75-.73 1.55-1.48 2.4-.75.86-1.77 1.81-3.07 2.87-1.29 1.06-2.96 2.25-5 3.56-2.04 1.32-3.75 2.31-5.14 2.98-1.38.67-2.49 1.09-3.31 1.25-.82.16-1.44.07-1.84-.26-.41-.33-.64-.85-.72-1.54l-23.26-114.61c-.65-3.07-.34-5.89.94-8.46 1.28-2.57 3.08-4.6 5.41-6.11l11.97-7.73c1.92-1.24 3.66-2.09 5.22-2.53 1.55-.45 3.02-.5 4.39-.16 1.37.34 2.75 1.03 4.13 2.07 1.37 1.04 2.86 2.46 4.45 4.25l38.7 39.94c2.51 2.54 4.89 5.12 7.17 7.73 2.27 2.61 4.59 5.2 6.96 7.76l.17-.11c-1.16-4.6-2.3-9.37-3.42-14.33-1.13-4.95-2.18-9.78-3.16-14.49l-12.11-60.11c-.13-.65-.09-1.33.13-2.03.22-.7.7-1.45 1.43-2.26.73-.81 1.74-1.71 3.01-2.72 1.28-1.01 2.93-2.17 4.98-3.49 2.04-1.32 3.75-2.33 5.16-3.05 1.4-.72 2.51-1.17 3.32-1.36.81-.19 1.42-.14 1.84.14.42.29.7.76.83 1.41L2243.77 1083.13z"></path><g><path d="M1872.29,778.87c-13.12,12.56-29.71,25.34-42.24,24.12c-24.19-2.29-109.29-174.68-109.29-174.68l65.63-8.02
				c0,0,42,85.52,84.83,121.51C1882.53,751.31,1882.94,768.63,1872.29,778.87z"></path><path fill="#ec4e84" d="M2115.07,589.97c-123.04-1.47-234.51,10.88-323.09,36.45c-35.4,10.21-67.17,22.58-94.47,37.04
				c-30.03,6.53-69.21-78.13-54.52-106.03c36.5-16.76,69.78-36.54,99.8-57.87c140.79-99.71,210.58-231.59,210.58-231.59
				L2115.07,589.97z"></path><path d="M2115.04,590.02c-16.24,6.67-56.43-43.45-95.06-116.34c-5.76-10.8-11.45-22.14-17.04-33.84
				c-4.37-9.13-8.47-18.15-12.36-27c-34.46-78.96-48.87-144.04-32.07-150.94c18.71-7.67,68.89,59.59,112.14,150.18
				C2113.86,502.69,2133.74,582.35,2115.04,590.02z"></path><path fill="#fea300" d="M2061.38 451.29l-41.41 22.39c-5.76-10.8-11.45-22.14-17.04-33.84-4.37-9.13-8.47-18.15-12.36-27l43.52-18.39L2061.38 451.29zM1791.98 626.42c-35.4 10.21-67.17 22.58-94.47 37.04-30.03 6.53-69.21-78.13-54.52-106.03 36.5-16.76 69.78-36.54 99.8-57.87C1738.27 535.37 1762.89 596.98 1791.98 626.42z"></path><path fill="#fff" d="M1743.18,719.04c0,0,3.53-45.4,13.36-49.54c9.83-4.14,48.88-1.45,51.19,14.17
				c2.31,15.62-34.13,13.01-34.13,13.01l28.11,76.5L1743.18,719.04z"></path><path d="M1801.71,775.74c-0.62,0-1.24-0.23-1.73-0.68l-58.53-54.15c-0.57-0.53-0.87-1.29-0.81-2.07
				c0.61-7.84,4.19-47.17,14.91-51.69c8.19-3.45,32.38-2.66,45.59,4.77c5.38,3.02,8.44,6.85,9.11,11.37c0.5,3.35-0.42,6.4-2.67,8.82
				c-6.42,6.93-22.66,7.44-30.27,7.28l26.79,72.91c0.4,1.11,0,2.35-0.98,3C1802.69,775.6,1802.2,775.74,1801.71,775.74z
				 M1745.82,718.01l49.85,46.11l-24.45-66.56c-0.3-0.81-0.16-1.72,0.36-2.41c0.52-0.69,1.33-1.07,2.22-1.01
				c6.52,0.46,24.63,0.38,30.06-5.49c1.2-1.3,1.64-2.76,1.36-4.61c-0.42-2.88-2.64-5.47-6.56-7.68
				c-12.15-6.83-34.72-7.21-41.11-4.52C1751.87,674.24,1747.34,699.85,1745.82,718.01z"></path><path fill="#63c634" d="M1827.5,797.05c0,0-110.89,193.63-260.1,223.74c-6.56,1.33-13.08,2.31-19.51,2.99
				c-52.44,5.64-100.42-8.8-139.91-29.05c-65.96-33.85-108.3-83.9-108.3-83.9l87.61-93.25c0,0,58.18,68.54,149.86,76.63
				c119.89,10.6,197.81-182.76,197.81-182.76C1740.02,705.98,1832.55,791.59,1827.5,797.05z"></path><path fill="#4cb621" d="M1547.89,1023.78c-52.44,5.64-100.42-8.8-139.91-29.05l48.29-53.96
				C1456.27,940.76,1487.37,1005.46,1547.89,1023.78z"></path><path fill="#63c634" d="M1456.89,955.37c0,94.27-76.43,170.7-170.69,170.7c-38.57,0-74.12-12.78-102.7-34.29
							c-17.2-12.98-31.84-29.12-43.09-47.54c-1.7-2.79-3.33-5.61-4.83-8.5c-12.81-23.96-20.08-51.31-20.08-80.37
							c0-8.43,0.65-16.75,1.84-24.87c9.52-65.15,55.8-118.33,117.1-137.77c16.31-5.23,33.71-8.02,51.76-8.02
							c17.53,0,34.46,2.65,50.43,7.58C1406.29,813.8,1456.89,878.67,1456.89,955.37z"></path><path d="M1393.42,1090.73c-0.74,0-1.48-0.32-1.98-0.95c-0.89-1.09-0.72-2.7,0.38-3.58c39.73-32.12,62.52-79.8,62.52-130.83
							c0-9.78-0.85-19.58-2.52-29.14c-0.24-1.39,0.69-2.71,2.07-2.95c1.36-0.24,2.7,0.68,2.95,2.07c1.72,9.85,2.59,19.94,2.59,30.02
							c0,52.57-23.48,101.7-64.41,134.79C1394.56,1090.55,1393.99,1090.73,1393.42,1090.73z"></path><path fill="#4cb621" d="M1183.49,1091.78c-17.2-12.98-31.84-29.12-43.09-47.54c-1.7-2.79-3.33-5.61-4.83-8.5
							c28.65-31.3,77.85-85.98,77.85-85.98S1221.9,1042.1,1183.49,1091.78z"></path><path fill="#63c634" d="M1122.46,907.04c0,0-50.69,127.45-130.51,157.53C920.38,1091.54,800.4,951.2,800.4,951.2l-119.16,27.19
							c0,0,168.99,228.48,329.8,201.87c160.8-26.61,204.67-240.05,204.67-240.05"></path><path d="M1011.03,1182.8c-1.22,0-2.3-0.88-2.51-2.13c-0.23-1.39,0.71-2.7,2.1-2.93c157.26-26.02,202.16-235.93,202.59-238.05
							c0.28-1.38,1.6-2.27,3.01-1.98c1.38,0.28,2.27,1.63,1.98,3.01c-0.11,0.54-11.4,54.39-42.3,110.76
							c-28.62,52.22-80.38,117.38-164.46,131.29C1011.31,1182.79,1011.17,1182.8,1011.03,1182.8z"></path><path fill="#4cb621" d="M1306.15,831.91c-32.37,6.4-60.55-25.38-71.73-39.19c16.33-5.21,33.72-8.01,51.77-8.01
							c17.55,0,34.47,2.64,50.42,7.57C1336.61,792.28,1346.68,823.91,1306.15,831.91z"></path><circle cx="1336.58" cy="558.83" r="53.97"></circle><path fill="#fff" d="M1371.84,605.41c20.18,66.91-6.22,140.45-69.12,159.43s-138.47-23.81-158.65-90.72
								c-20.18-66.91,14.44-136.53,77.34-155.51S1351.66,538.5,1371.84,605.41z"></path><path d="M1271.73,771.87c-55.89,0-112.96-40.16-130.11-97.02c-20.56-68.15,14.9-139.33,79.04-158.68
								c64.15-19.36,133.06,20.35,153.61,88.5c21.9,72.59-9.21,144.02-70.82,162.6C1293.12,770.4,1282.45,771.87,1271.73,771.87z
								 M1253.82,516.37c-10.53,0-21.17,1.51-31.68,4.68c-61.45,18.54-95.38,86.87-75.64,152.33
								c19.67,65.2,93.76,107.62,155.48,89.01c58.88-17.76,88.49-86.39,67.42-156.25C1353.04,551.89,1304.84,516.37,1253.82,516.37z
								"></path><path fill="#fff" d="M1112.56,711.11c5,19.87,25.2,31.95,45.07,26.96c19.87-5,31.95-25.2,26.95-45.07
								c-1.05-4.19-2.79-7.99-5.04-11.38c-8.39-12.77-24.29-19.47-40.02-15.52c-14.15,3.56-24.36,14.82-27.2,28.13
								C1111.11,699.6,1111.12,705.4,1112.56,711.11z"></path><path d="M1148.57,741.74c-17.76,0-33.96-12.02-38.49-30.01c-1.49-5.93-1.57-12.18-0.25-18.06
								c3.11-14.58,14.52-26.38,29.07-30.04c16.34-4.11,33.54,2.55,42.77,16.59c0.77,1.18,0.44,2.76-0.73,3.53
								c-1.18,0.78-2.76,0.44-3.53-0.73c-8.04-12.23-23.01-18.03-37.26-14.45c-12.67,3.19-22.62,13.47-25.33,26.19
								c-1.16,5.14-1.08,10.57,0.21,15.73c4.65,18.49,23.46,29.75,41.97,25.1c7.74-1.95,14.62-6.55,19.36-12.98
								c0.84-1.13,2.43-1.37,3.56-0.54c1.14,0.84,1.37,2.43,0.54,3.57c-5.45,7.37-13.33,12.66-22.22,14.89
								C1155.01,741.35,1151.77,741.74,1148.57,741.74z"></path><path d="M1144.56,666.06c0,0,22.57,1.37,37.55,17.52c0,0,70.23-26.66,69.12-89.68s-67.4-108.56-119.54-80.44
								c-52.14,28.12-13.11,80.24-13.11,80.24s-32.27,10.57-26.38,45.92c5.89,35.35,30.1,42.18,30.1,42.18
								C1127.22,673.55,1134.35,667.97,1144.56,666.06z"></path><circle cx="1274.53" cy="505.13" r="91.74"></circle><ellipse cx="1275.55" cy="655.51" rx="8.57" ry="11.9" transform="rotate(-16.654 1275.523 655.49)"></ellipse><path d="M1260.11,641.99c-0.22,0-0.43-0.03-0.65-0.08c-1.36-0.36-2.18-1.75-1.82-3.11c1.3-4.98,4.52-9,9.06-11.32
								c4.06-2.07,8.67-2.45,12.35-1.02c1.31,0.51,1.96,1.99,1.45,3.3c-0.51,1.31-2,1.96-3.3,1.45c-2.32-0.9-5.45-0.59-8.18,0.81
								c-3.23,1.65-5.52,4.51-6.44,8.07C1262.28,641.24,1261.24,641.99,1260.11,641.99z"></path><ellipse cx="1333.31" cy="624.79" rx="8.57" ry="11.9" transform="rotate(-16.654 1333.283 624.77)"></ellipse><path d="M1317.87 611.27c-.22 0-.43-.03-.65-.08-1.36-.36-2.18-1.75-1.82-3.11 1.3-4.98 4.52-9 9.06-11.32 4.05-2.07 8.67-2.45 12.35-1.02 1.31.51 1.96 1.99 1.45 3.3-.51 1.31-2 1.96-3.3 1.45-2.31-.9-5.45-.59-8.18.81-3.23 1.65-5.52 4.51-6.44 8.07C1320.04 610.51 1319 611.27 1317.87 611.27zM1312.12 702.29c-.96 0-1.88-.55-2.31-1.48-.59-1.28-.04-2.79 1.23-3.39 9.48-4.41 24.79-14 25.48-20.98.07-.69.28-2.78-3.01-5.19-16.94-12.43-35.35-51.04-36.12-52.67-.6-1.27-.06-2.79 1.21-3.39 1.27-.6 2.79-.06 3.39 1.21.19.39 18.63 39.08 34.53 50.74 4.66 3.42 5.33 7.22 5.07 9.8-1.21 12.13-25.63 23.81-28.41 25.1C1312.84 702.21 1312.48 702.29 1312.12 702.29z"></path><g><path d="M1279.61,738.36c-5.26,0-11.08-1.12-17.2-4.17c-1.26-0.63-1.77-2.16-1.14-3.42c0.63-1.26,2.15-1.77,3.42-1.14
					c19.76,9.85,36.49-3.78,36.65-3.92c1.08-0.9,2.68-0.76,3.59,0.33c0.9,1.08,0.75,2.69-0.33,3.59
					C1304.03,730.1,1293.89,738.36,1279.61,738.36z"></path></g><g><path fill="#ecedeb" d="M390.7 1248.59c-22.4 4.54-45.6 7.06-69.28 5.8-16.37-48.08-25.36-100.57-25.36-155.48 0-24.94 1.9-49.37 5.41-73.08h12.82c1.84 66.28 27.16 130.38 59.45 185.54.26.42.52.87.77 1.29C381.23 1224.03 386.64 1236.08 390.7 1248.59zM358.92 2117h-57.43c-3.54-23.75-5.43-48.14-5.43-73.08 0-203.81 123.7-373.73 287.74-411.78C579.38 1635.62 249.11 1894.98 358.92 2117z"></path><path fill="#fea300" d="M884.87 2117.32c0 0-23.64-58.15-101.07-61.97-77.43-3.83-55.42.96-82.32-20.1-26.9-21.06-56.24-40.2-96.18-27.76-39.94 12.44-12.23 51.68-70.09 61.26s-122.26-11.01-139.37 48.57H884.87zM998.79 1208.27c-35.09 153-141.94 271.42-275.57 302.42-26.65-9.25-53.2 131.76-58.1 162.4-4.87 30.61-35.06 60.29-32.61 8.6 2.19-46.34-38.64-147-47.11-167.37-1-2.35-1.55-3.64-1.55-3.64-119.87-27.78-218.18-125.96-262.43-256.3 23.68 1.26 46.88-1.26 69.28-5.8 1.93-.42 3.87-.84 5.8-1.26 68.76-15.18 129.25-48.82 172.04-51.46 69.05-4.32 103.92 79.53 163.82 89.58 59.94 10.05 96.54-31.58 143.04-77.18C921.87 1162.65 998.79 1208.27 998.79 1208.27z"></path><path fill="#e28d05" d="M585.39,1514.33c-0.52,0.32-1.03,0.65-1.55,0.97v-4.61c-119.87-27.78-218.18-125.96-262.43-256.3
							c23.68,1.26,46.88-1.26,69.28-5.8c3.74,11.5,6.38,23.36,7.86,35.45c9.73,78.46,54.65,110.46,149.9,164.89
							C590.78,1473.09,600.57,1504.6,585.39,1514.33z"></path><path d="M1025.83 1025.83H281.26c-17.27 0-31.26-14-31.26-31.26v0c0-17.27 14-31.26 31.26-31.26h744.56c17.27 0 31.26 14 31.26 31.26v0C1057.09 1011.83 1043.09 1025.83 1025.83 1025.83zM1025.83 2175.54H281.26c-17.27 0-31.26-14-31.26-31.26v0c0-17.27 14-31.26 31.26-31.26h744.56c17.27 0 31.26 14 31.26 31.26v0C1057.09 2161.54 1043.09 2175.54 1025.83 2175.54z"></path><ellipse cx="703.05" cy="1707.04" fill="#fea300" rx="6.54" ry="7.68"></ellipse><ellipse cx="655.88" cy="1756.41" fill="#fea300" rx="9.81" ry="11.52"></ellipse><ellipse cx="594.46" cy="1682.09" fill="#fea300" rx="14.71" ry="17.28"></ellipse><ellipse cx="590.72" cy="1750.1" fill="#fea300" rx="15.18" ry="17.83"></ellipse><g><ellipse cx="632.76" cy="1840.05" fill="#fea300" rx="9.11" ry="10.7"></ellipse></g><g opacity=".2"><path fill="#fff" d="M1011.04,2043.92c0,24.94-1.87,49.33-5.41,73.08H301.49c-3.54-23.75-5.43-48.14-5.43-73.08
					c0-203.81,123.7-373.73,287.74-411.78c0.03-0.03,0.05-0.03,0.05-0.03v-121.42c-119.86-27.78-218.18-125.96-262.44-256.3
					c-16.35-48.08-25.35-100.57-25.35-155.48c0-24.94,1.89-49.37,5.43-73.08h704.14c3.54,23.72,5.41,48.14,5.41,73.08
					c0,37.83-4.25,74.5-12.27,109.37c-35.07,153-141.92,271.42-275.55,302.42v121.42
					C887.31,1670.16,1011.04,1840.07,1011.04,2043.92z"></path></g><g><path d="M1005.63,2119.55H301.49c-1.26,0-2.34-0.92-2.52-2.17c-3.62-24.3-5.46-49.02-5.46-73.46
					c0-200.33,120.91-374,287.79-413.81v-117.4c-119.18-28.42-217.15-124.53-262.3-257.5c-16.92-49.72-25.49-102.31-25.49-156.3
					c0-24.48,1.84-49.19,5.46-73.46c0.19-1.25,1.26-2.17,2.52-2.17h704.14c1.26,0,2.33,0.92,2.52,2.17
					c3.6,24.15,5.43,48.87,5.43,73.46c0,37.36-4.15,74.34-12.33,109.94c-35.11,153.2-143.12,272.23-275.49,303.86v117.38
					c166.9,39.84,287.82,213.5,287.82,413.83c0,24.56-1.83,49.28-5.43,73.46C1007.97,2118.63,1006.89,2119.55,1005.63,2119.55z
					 M303.69,2114.45h699.73c3.36-23.24,5.06-46.96,5.06-70.53c0-198.77-120.21-370.92-285.85-409.33c-1.15-0.27-1.97-1.3-1.97-2.48
					v-121.42c0-1.19,0.82-2.22,1.97-2.48c131.38-30.48,238.79-148.43,273.64-300.5c8.1-35.22,12.2-71.82,12.2-108.8
					c0-23.61-1.7-47.32-5.06-70.53H303.69c-3.38,23.32-5.08,47.04-5.08,70.53c0,53.43,8.49,105.46,25.22,154.66
					c44.83,132.02,142.25,227.21,260.6,254.64c1.16,0.27,1.97,1.3,1.97,2.48v121.42c0,0.96-0.53,1.8-1.32,2.24
					c-0.22,0.13-0.46,0.22-0.7,0.28c-165.58,38.41-285.76,210.55-285.76,409.3C298.61,2067.38,300.32,2091.1,303.69,2114.45z"></path></g><g opacity=".3"><ellipse cx="883.73" cy="1307.79" fill="#fff" rx="81.77" ry="42.95" transform="rotate(-60 883.735 1307.835)"></ellipse></g><g opacity=".3"><ellipse cx="768.58" cy="1374.17" fill="#fff" rx="49.21" ry="25.85" transform="rotate(-53.942 768.517 1374.168)"></ellipse></g></g><g><path fill="#fff" d="M809.67,964.16c0,0-3.53-42.33-42.71-45.84c-39.18-3.51-68.82,3.32-78.51,33.25
						c-8.27,25.55,1.11,56.74,14.85,51.91c0,0,1.08,10.31,7.45,12.87c6.37,2.56,11.3-5.63,11.3-5.63s2.03,15.02,11.08,16.45
						c9.04,1.43,12.37-8.46,12.37-8.46s4.71,7.69,13.1,7.18c8.39-0.51,8.78-44.3,15.8-57.55C780,957.76,809.67,964.16,809.67,964.16
						z"></path><path d="M734.88,1029.87c-0.69,0-1.4-0.06-2.15-0.17c-7-1.11-10.44-8.33-12.01-13.45c-2.79,2.46-6.64,4.2-10.92,2.48
						c-5.45-2.19-7.69-8.53-8.55-12.22c-3.15,0.24-6.29-1.01-8.96-3.62c-8.49-8.28-13.04-31.2-6.27-52.09
						c9.08-28.03,34.87-39.15,81.17-35.01c40.84,3.66,44.98,47.72,45.02,48.17l0.29,3.43l-3.36-0.72
						c-10.75-2.31-29.06-3.57-32.48,2.89c-2.86,5.4-4.63,16.8-6.35,27.82c-3.05,19.59-5.08,30.7-11.55,31.09
						c-5.81,0.36-10.18-2.61-12.73-5.11C743.87,1026.59,740.19,1029.87,734.88,1029.87z M723.6,1003.31l0.98,7.08
						c0.5,3.66,3.09,13.35,8.95,14.28c6.79,1.08,9.45-6.44,9.56-6.76l1.76-5.1l2.82,4.59c0.16,0.25,4.07,6.36,10.77,5.97
						c2.8-0.93,5.32-17.11,6.82-26.78c1.78-11.44,3.62-23.26,6.88-29.42c5.27-9.94,25.88-7.62,34.52-6.16
						c-1.73-9.8-9.29-37.39-39.93-40.14c-43.5-3.89-67.63,6.11-75.86,31.5c-5.92,18.27-2.25,39.82,4.98,46.87
						c2.12,2.06,4.27,2.66,6.6,1.85l3.03-1.07l0.35,3.2c0.27,2.45,1.84,9.16,5.86,10.78c4.26,1.72,8.14-4.52,8.17-4.59
						L723.6,1003.31z"></path><path d="M700.79 1003.91c-.1-.58-2.36-14.32.1-28.11 2.42-13.59 8.25-29.1 8.5-29.76l4.77 1.8c-.06.16-5.91 15.74-8.25 28.85-2.3 12.89-.11 26.24-.09 26.37L700.79 1003.91zM719.52 1010.97c-.07-.78-1.76-19.28 1.03-32.06 2.74-12.58 9.33-29.78 9.61-30.51l4.76 1.83c-.07.17-6.73 17.56-9.39 29.76-2.62 12.01-.95 30.31-.93 30.49L719.52 1010.97zM742.98 1019.12c-.11-.69-2.65-16.92-1.81-27.44.85-10.63 9.99-37.38 10.37-38.51l4.83 1.65c-.1.27-9.32 27.27-10.12 37.27-.8 9.91 1.74 26.08 1.77 26.24L742.98 1019.12z"></path><g><path d="M776.9,968.85l-5-1c0.09-0.43,2.2-10.63,10.03-16.95c8.54-6.88,16.17-2.09,16.5-1.89l-2.77,4.28
					c-0.18-0.11-4.92-2.94-10.53,1.57C778.76,960,776.91,968.76,776.9,968.85z"></path></g></g><g><polygon points="1085.51 2075.91 1121.96 2010.12 1041.86 1965.74 986.02 2066.54"></polygon></g><g><path fill="#63c634" d="M1147.15,2219.72l-5.66,10.21c-4.55,8.21-14.91,11.19-23.14,6.62l-162.63-90.1
					c-7.53-4.17-10.77-13.3-7.53-21.27l5.2-12.81l30.63-75.59c2.04-5.01,7.98-7.1,12.7-4.49l60.38,33.45l9.81-16.37
					c6.71-12.12,22.51-17.24,34.64-10.54c6.13,3.37,10.3,8.94,12.09,15.14c1.79,6.22,1.2,13.1-2.18,19.22
					c0,0-12.23,13.6-12.77,21.72c-1.19,17.47,12.15,50.85,25.12,78.69C1135.63,2198.96,1147.15,2219.72,1147.15,2219.72z"></path><path fill="#4cb621" d="M1123.8,2173.6c-63.51-32.37-66.71-107.85-66.71-107.85l9.81-16.37c6.71-12.12,22.51-17.24,34.64-10.54
					c6.13,3.37,10.3,8.94,12.09,15.14c1.79,6.22,1.2,13.1-2.18,19.22c0,0-12.23,13.6-12.77,21.72
					C1097.48,2112.38,1110.82,2145.76,1123.8,2173.6z"></path><path d="M1147.15 2219.72l-5.66 10.21c-4.56 8.23-14.91 11.2-23.14 6.64l-162.63-90.1c-7.53-4.17-10.75-13.31-7.53-21.28l5.2-12.82L1147.15 2219.72zM1122.18 2156.23l-24.18-13.4c-.49-.27-.67-.89-.4-1.38l2.35-4.25c.27-.49.89-.67 1.38-.4l24.18 13.4c.49.27.67.89.4 1.38l-2.35 4.25C1123.28 2156.32 1122.66 2156.5 1122.18 2156.23zM1113.19 2135.31l-24.18-13.4c-.49-.27-.67-.89-.4-1.38l2.35-4.25c.27-.49.89-.67 1.38-.4l24.18 13.4c.49.27.67.89.4 1.38l-2.35 4.25C1114.29 2135.4 1113.68 2135.58 1113.19 2135.31zM1104.2 2114.39l-24.18-13.4c-.49-.27-.67-.89-.4-1.38l2.35-4.25c.27-.49.89-.67 1.38-.4l24.18 13.4c.49.27.67.89.4 1.38l-2.35 4.25C1105.3 2114.48 1104.69 2114.66 1104.2 2114.39z"></path></g><g><polygon points="1484.9 1847.93 1542.37 1799.4 1483.29 1729.43 1395.24 1803.78"></polygon></g><g><path fill="#727ef4" d="M1546.63,1811.49c-9.84,9.06-25.02,8.88-34.64-0.37l-58.82-56.46c-9.5-9.16-10.43-24.02-2.11-34.23
						c40.01-49.16,147.19-183.34,142-204.02c-3.45-13.78-64.59-43.67-119.78-68.1c-46.43-20.58-88.65-37.28-88.65-37.28l-9.9-22.88
						l-103.95-240.08l25.54-6.46c60.96-10.03,123.32,5.65,172.3,43.3c104.88,80.61,272.33,212.3,284.87,288.6
						C1770.05,1574.26,1601.79,1760.89,1546.63,1811.49z"></path><path fill="#4a61d8" d="M1473.29,1448.3c-46.43-20.58-88.65-37.28-88.65-37.28l-5.99-126.64
						C1406.62,1343.45,1437.47,1398.92,1473.29,1448.3z"></path><path fill="#727ef4" d="M1270.8,1148.06l-17.99,8.41c-46.72,27.74-61.97,77.8-66.29,131.96c-8.94,112.12-38.71,286.6-58.32,348.7
						c-22.65,71.71-94.3,244.36-126.36,313.86c-7.49,16.24-0.92,35.47,14.92,43.76l75.59,39.58c16.84,8.82,37.62,1.92,45.82-15.22
						c38.78-81.07,140.86-279.84,164.86-343.42c30.66-81.19,81.63-264.69,81.63-264.69L1270.8,1148.06z"></path><rect width="5.1" height="149.68" x="1378.56" y="1261.43" transform="rotate(-2.688 1381.416 1335.492)"></rect><polygon points="1256.92 1401.29 1177.26 1383.55 1178.37 1378.57 1252.85 1395.17 1274.14 1278.04 1190.49 1264.03 1191.33 1259 1280.08 1273.87"></polygon><rect width="5.1" height="87.36" x="1227.06" y="1249.41" transform="rotate(-80.758 1229.542 1293.112)"></rect><polygon points="1558.59 1307.93 1453.69 1229.68 1486.84 1198.48 1490.33 1202.19 1461.61 1229.22 1558.02 1301.14 1582.63 1275.3 1586.32 1278.82"></polygon><rect width="42.03" height="5.1" x="1471.89" y="1227.4" transform="rotate(-43.021 1492.872 1229.88)"></rect><g><path d="M1590.8,1767.51c-52.92-30.57-92.9-71.52-107.63-87.71l3.77-3.43c14.57,16.01,54.11,56.51,106.41,86.73L1590.8,1767.51z
					"></path></g><g><path d="M1573.16,1786.28c-51.01-29.84-90.26-71.47-104.76-87.98l3.83-3.36c14.34,16.33,53.13,57.48,103.51,86.95
					L1573.16,1786.28z"></path></g><g><path d="M1168.42,1958.19c-65.05-19.98-118.42-53.57-138.34-67.09l2.86-4.22c19.74,13.39,72.59,46.66,136.97,66.44
					L1168.42,1958.19z"></path></g><g><path d="M1155.6,1984.2c-63.4-19.58-116.89-54.52-136.94-68.64l2.93-4.17c19.86,13.98,72.81,48.57,135.51,67.93L1155.6,1984.2z"></path></g></g><g><path fill="#63c634" d="M1491.36,2004.26l-8.92,7.53c-7.17,6.06-17.91,5.15-23.98-2.04L1338.5,1867.7
					c-5.56-6.58-5.34-16.26,0.53-22.56l9.42-10.13l55.51-59.75c3.69-3.96,9.98-3.8,13.47,0.32l44.53,52.74l15-11.81
					c10.59-8.94,27.17-8.11,36.12,2.47c4.53,5.33,6.45,12.02,5.92,18.45c-0.54,6.45-3.54,12.67-8.88,17.19
					c0,0-16.27,8.37-19.66,15.75c-7.33,15.91-6.73,51.84-4.51,82.48C1487.98,1980.75,1491.36,2004.26,1491.36,2004.26z"></path><path fill="#4cb621" d="M1485.94,1952.84c-47.85-52.85-23.99-124.52-23.99-124.52l15-11.81c10.59-8.94,27.17-8.11,36.12,2.47
					c4.53,5.33,6.45,12.02,5.92,18.45c-0.54,6.45-3.54,12.67-8.88,17.19c0,0-16.27,8.37-19.66,15.75
					C1483.11,1886.27,1483.71,1922.21,1485.94,1952.84z"></path><path d="M1491.36 2004.25l-8.92 7.53c-7.19 6.07-17.92 5.16-23.99-2.02l-119.95-142.05c-5.55-6.58-5.32-16.26.53-22.57l9.42-10.13L1491.36 2004.25zM1490.6 1936.04l-17.84-21.12c-.36-.43-.31-1.07.12-1.43l3.71-3.13c.43-.36 1.07-.31 1.43.12l17.84 21.12c.36.43.31 1.07-.12 1.43l-3.71 3.13C1491.6 1936.52 1490.96 1936.46 1490.6 1936.04zM1489.64 1913.29l-17.84-21.12c-.36-.43-.31-1.07.12-1.43l3.71-3.13c.43-.36 1.07-.31 1.43.12l17.84 21.12c.36.43.31 1.07-.12 1.43l-3.71 3.13C1490.64 1913.77 1490 1913.71 1489.64 1913.29zM1488.68 1890.54l-17.84-21.12c-.36-.43-.31-1.07.12-1.43l3.71-3.13c.43-.36 1.07-.31 1.43.12l17.84 21.12c.36.43.31 1.07-.12 1.43l-3.71 3.13C1489.68 1891.02 1489.04 1890.97 1488.68 1890.54z"></path></g><g><ellipse cx="2047.69" cy="422.77" fill="#fff" rx="13.11" ry="31.48" transform="rotate(-25.889 2047.858 422.793)"></ellipse></g><g><path fill="#fff" d="M1812.29,676c0,0,37.3-20.32,61.77,10.48c24.47,30.8,35.06,59.31,15.39,83.86
						c-16.79,20.95-40.47,16.75-43.99,2.62c0,0-9.21,4.77-14.85,0.85c-5.64-3.91-1.51-12.54-1.51-12.54s-13.66,6.56-19.83-0.21
						c-6.17-6.77,0.26-14.98,0.26-14.98s-9.01,0.29-13.2-7c-4.19-7.29,24.64-18.17,31.85-31.32
						C1833.94,697.26,1812.29,676,1812.29,676z"></path><path d="M1862.95,787.34c-1.91,0-3.72-0.2-5.37-0.56c-6.4-1.4-11.32-5.21-13.65-10.42c-3.59,1.31-10.02,2.85-14.79-0.46
						c-3.8-2.63-4.45-6.8-3.94-10.49c-5.13,1.5-13.06,2.6-17.84-2.64c-4.41-4.84-3.73-10.55-1.99-14.61
						c-3.49-0.75-8.33-2.71-11.27-7.82c-3.38-5.88,4.53-11.36,13.69-17.71c7.04-4.88,15.02-10.42,18.14-16.1
						c3.52-6.42-7.61-21.02-15.45-28.72l-2.46-2.41l3.02-1.65c0.39-0.21,39.48-20.98,64.99,11.13
						c28.92,36.39,33.8,64.05,15.38,87.04C1882.29,783.34,1871.51,787.34,1862.95,787.34z M1847.14,769.22l0.78,3.12
						c1.17,4.71,5.19,8.25,10.75,9.46c7.54,1.65,19.05-0.91,28.78-13.06c16.69-20.83,11.79-46.46-15.39-80.68
						c-19.15-24.09-46.35-15.23-55.48-11.29c5.97,6.41,19.24,22.36,13.83,32.22c-3.69,6.74-12.2,12.63-19.7,17.84
						c-4.62,3.2-13.22,9.17-12.18,10.99c3.34,5.81,10.57,5.73,10.92,5.72l5.39-0.13l-3.31,4.25c-0.2,0.26-5.01,6.63-0.39,11.69
						c3.99,4.38,13.51,1.22,16.85-0.38l6.51-3.11l-3.11,6.51c-0.03,0.06-3.11,6.72,0.67,9.34c3.57,2.48,10.03,0.1,12.22-1.03
						L1847.14,769.22z"></path><path d="M1846.48 775.28l-2.06-4.66c.12-.05 12.47-5.57 21.98-14.57l3.5 3.7C1859.74 769.38 1847.02 775.05 1846.48 775.28zM1830.29 763.52l-2.39-4.5c.16-.09 16.38-8.76 24.96-17.54l3.64 3.56C1847.36 754.39 1830.98 763.15 1830.29 763.52zM1810.57 748.4l-2.1-4.64c.15-.07 15.04-6.83 22.89-12.95l3.13 4.02C1826.17 741.31 1811.21 748.11 1810.57 748.4z"></path><g><path d="M1829.98,709.57l-3.59-3.62c0.06-0.06,6.37-6.42,7.16-14.56c0.7-7.29-4.42-9.64-4.48-9.66l2.06-4.66
					c0.35,0.15,8.54,3.9,7.49,14.82C1837.65,701.89,1830.29,709.27,1829.98,709.57z"></path></g></g></g><g><path fill="#fea300" d="M1673.08 1049.78c.7 1.63 1.36 3.99 1.98 7.07.62 3.09.86 5.73.73 7.93-.13 2.2-.73 3.64-1.77 4.32-.76.49-1.87.59-3.33.31-1.46-.28-3.27-.43-5.43-.44-2.17-.01-4.76.34-7.79 1.08-3.03.73-6.5 2.36-10.4 4.88-4.31 2.78-7.87 6.18-10.68 10.18-2.82 4.01-5.02 8.32-6.6 12.94-1.58 4.62-2.64 9.44-3.16 14.46-.52 5.01-.62 9.94-.29 14.78.33 4.83 1.01 9.43 2.02 13.79 1.02 4.36 2.25 8.22 3.7 11.59 1.75 4.07 3.8 7.31 6.13 9.74 2.34 2.42 4.91 4.03 7.71 4.82 2.8.79 5.81.8 9.04.01 3.24-.79 6.6-2.31 10.09-4.56 4.14-2.67 7.48-5.39 10.05-8.16s4.66-5.35 6.28-7.73c1.61-2.38 2.92-4.45 3.91-6.2.99-1.75 2.04-2.99 3.15-3.71.76-.49 1.39-.54 1.89-.16.5.38.96 1.07 1.39 2.06.17.41.38 1.05.61 1.94.23.89.48 1.9.74 3.03.26 1.13.54 2.37.81 3.71.28 1.34.49 2.62.64 3.82.15 1.2.21 2.35.19 3.44-.02 1.09-.2 2.16-.57 3.21-.36 1.05-1.26 2.69-2.69 4.91-1.43 2.22-3.29 4.63-5.6 7.23-2.3 2.6-5.02 5.3-8.13 8.09-3.11 2.79-6.59 5.43-10.43 7.91-6.35 4.1-12.44 6.95-18.25 8.55-5.82 1.61-11.24 1.84-16.27.7-5.03-1.13-9.61-3.67-13.76-7.6-4.14-3.93-7.7-9.36-10.68-16.27-2.32-5.4-4.18-11.38-5.59-17.94-1.41-6.55-2.19-13.34-2.34-20.37-.16-7.03.41-14.15 1.7-21.36 1.29-7.21 3.47-14.21 6.54-20.99 3.07-6.78 7.12-13.19 12.14-19.25 5.02-6.06 11.17-11.44 18.45-16.14 4.08-2.63 8.11-4.7 12.12-6.21 4-1.51 7.66-2.43 10.96-2.79 3.31-.35 5.75-.31 7.31.13C1671.18 1046.95 1672.33 1048.03 1673.08 1049.78zM1793.11 1006.59c2.2 5.12 4.08 10.88 5.64 17.29 1.57 6.41 2.55 13.15 2.94 20.21s.02 14.29-1.1 21.7c-1.13 7.41-3.26 14.67-6.38 21.77-3.13 7.1-7.44 13.95-12.93 20.54-5.5 6.6-12.42 12.58-20.74 17.95-7.05 4.55-13.6 7.78-19.66 9.68-6.06 1.91-11.64 2.43-16.73 1.56-5.1-.87-9.65-3.16-13.67-6.88-4.01-3.71-7.46-8.92-10.33-15.6-2.35-5.46-4.32-11.48-5.92-18.06-1.6-6.58-2.57-13.41-2.9-20.51-.34-7.1.1-14.34 1.32-21.73 1.21-7.39 3.38-14.62 6.52-21.69 3.13-7.07 7.44-13.84 12.92-20.31 5.47-6.47 12.32-12.35 20.53-17.65 7.04-4.55 13.6-7.76 19.68-9.64 6.07-1.88 11.65-2.36 16.73-1.44 5.08.92 9.64 3.26 13.68 7.04C1786.75 994.6 1790.21 999.85 1793.11 1006.59zM1769.76 1024.45c-1.52-3.54-3.3-6.5-5.32-8.87-2.02-2.37-4.33-3.98-6.93-4.83-2.6-.84-5.54-.9-8.82-.15-3.29.75-6.97 2.44-11.05 5.07-5.07 3.27-9.11 7.12-12.11 11.55-3 4.43-5.26 9.13-6.77 14.11s-2.35 10.11-2.53 15.39c-.19 5.28.03 10.37.65 15.28.62 4.91 1.53 9.5 2.74 13.77 1.2 4.27 2.44 7.89 3.71 10.85 1.55 3.6 3.33 6.58 5.34 8.91 2.01 2.34 4.32 3.91 6.93 4.71 2.62.8 5.56.81 8.83.03 3.27-.77 6.97-2.5 11.11-5.17 5.01-3.23 9.02-7.05 12.04-11.45 3.02-4.4 5.27-9.06 6.76-14 1.49-4.93 2.33-10.02 2.53-15.27.2-5.25-.01-10.31-.62-15.19-.61-4.88-1.51-9.45-2.72-13.73C1772.35 1031.21 1771.09 1027.53 1769.76 1024.45zM1962.68 989.11c.08.7.04 1.39-.11 2.08s-.58 1.46-1.3 2.29c-.72.84-1.78 1.8-3.17 2.88-1.39 1.08-3.17 2.32-5.32 3.71-2.27 1.47-4.14 2.57-5.6 3.34-1.46.76-2.63 1.23-3.51 1.43-.88.2-1.52.13-1.93-.2-.41-.33-.67-.83-.81-1.49l-21.1-103.63-.18.11-11.86 124.8c-.07 1.9-1.01 3.75-2.81 5.54-1.8 1.79-4.53 3.87-8.2 6.24-3.78 2.44-6.65 3.87-8.6 4.27s-3.16.13-3.65-.82l-52.8-83.39-.17.11 21.06 103.78c.13.66.11 1.34-.07 2.05-.18.71-.63 1.48-1.35 2.32-.72.84-1.76 1.79-3.13 2.85-1.37 1.06-3.15 2.31-5.36 3.74-2.21 1.43-4.05 2.52-5.51 3.28-1.46.76-2.63 1.23-3.52 1.43-.88.2-1.54.14-1.97-.17-.43-.31-.69-.82-.76-1.51l-23.11-113.48c-.33-1.64-.44-3.24-.33-4.8.11-1.56.45-3.02 1.02-4.39.56-1.37 1.34-2.63 2.33-3.79.99-1.16 2.15-2.17 3.5-3.04l14.33-9.25c2.56-1.65 4.84-2.84 6.83-3.57 1.99-.73 3.8-.95 5.41-.65 1.61.29 3.09 1.09 4.42 2.38 1.34 1.29 2.63 3.05 3.89 5.29l39.77 60.07.43-.28 9.93-92.16c.19-3.02.51-5.73.96-8.14.45-2.41 1.16-4.61 2.13-6.61.96-1.99 2.21-3.8 3.75-5.43 1.53-1.62 3.5-3.2 5.88-4.75l16.25-10.49c1.46-.94 2.79-1.54 4.02-1.82 1.22-.27 2.31-.21 3.26.18.95.39 1.74 1.1 2.37 2.14.64 1.04 1.15 2.36 1.54 3.96L1962.68 989.11zM2010.38 958.33c.13.66.07 1.37-.2 2.13-.27.77-.82 1.6-1.65 2.51-.84.91-1.98 1.93-3.43 3.05-1.45 1.12-3.28 2.4-5.5 3.82-2.27 1.47-4.15 2.58-5.64 3.36-1.49.78-2.7 1.28-3.65 1.52-.94.24-1.65.21-2.15-.06-.49-.28-.77-.76-.85-1.46l-24.46-120.51c-.19-.62-.14-1.32.15-2.11.29-.78.86-1.63 1.69-2.54.84-.91 1.97-1.92 3.39-3.02 1.42-1.1 3.24-2.37 5.45-3.8 2.21-1.43 4.06-2.53 5.55-3.31 1.49-.78 2.72-1.29 3.69-1.55.97-.25 1.69-.23 2.15.06.46.29.76.77.89 1.43L2010.38 958.33zM2126.51 877.01c.34 1.49.4 2.97.18 4.45-.22 1.48-.63 2.86-1.24 4.14-.6 1.28-1.37 2.43-2.31 3.44-.94 1.02-1.99 1.9-3.16 2.65l-9.78 6.32c-2.1 1.35-3.9 2.26-5.41 2.72-1.52.46-2.98.47-4.39.05-1.41-.43-2.88-1.29-4.41-2.61-1.53-1.31-3.31-3.1-5.32-5.37l-38.34-39.61c-2.96-3.06-5.82-6.23-8.6-9.49-2.78-3.25-5.5-6.51-8.16-9.77l-.17.11c1.39 4.97 2.66 9.92 3.82 14.85 1.15 4.94 2.22 9.94 3.22 15.02l13.23 65.06c.13.66.08 1.36-.15 2.11-.24.75-.73 1.55-1.48 2.4-.75.85-1.77 1.81-3.06 2.87-1.29 1.06-2.96 2.25-5 3.56-2.04 1.32-3.75 2.31-5.14 2.98-1.38.67-2.49 1.09-3.31 1.25-.83.16-1.44.08-1.84-.26-.41-.33-.64-.85-.72-1.54l-23.26-114.6c-.65-3.07-.34-5.89.94-8.46 1.28-2.57 3.08-4.61 5.41-6.11l11.97-7.73c1.92-1.24 3.66-2.08 5.21-2.53 1.55-.45 3.02-.5 4.4-.16 1.37.34 2.75 1.03 4.12 2.07 1.38 1.04 2.86 2.46 4.45 4.25l38.7 39.94c2.51 2.54 4.9 5.12 7.17 7.73 2.28 2.61 4.6 5.2 6.96 7.76l.17-.11c-1.16-4.6-2.3-9.37-3.42-14.33-1.13-4.95-2.18-9.78-3.16-14.5l-12.11-60.11c-.13-.65-.09-1.33.13-2.03s.7-1.45 1.43-2.26c.73-.8 1.74-1.71 3.01-2.72 1.28-1.01 2.93-2.17 4.97-3.49 2.04-1.32 3.76-2.34 5.16-3.05 1.4-.72 2.51-1.17 3.32-1.37.81-.19 1.43-.14 1.85.15.42.29.7.76.83 1.41L2126.51 877.01zM2220.21 698.04c.25.58.53 1.36.84 2.35.32.99.6 2.08.86 3.29.26 1.21.47 2.44.64 3.71.17 1.27.24 2.46.21 3.6s-.18 2.14-.43 3.01c-.26.87-.65 1.47-1.18 1.81-.87.56-2.31.86-4.31.89-1.99.03-4.51.24-7.54.63-3.03.4-6.56 1.27-10.6 2.61-4.03 1.34-8.53 3.61-13.48 6.8-4.95 3.2-9.18 6.84-12.71 10.93-3.52 4.09-6.46 8.47-8.8 13.14-2.34 4.67-4.1 9.51-5.25 14.53-1.15 5.01-1.79 10.01-1.92 14.99-.13 4.98.26 9.82 1.16 14.51.9 4.69 2.21 9.04 3.93 13.05 1.92 4.48 4.25 7.98 6.98 10.53 2.73 2.54 5.79 4.17 9.18 4.88 3.39.71 7.06.53 10.99-.53 3.93-1.05 8.03-2.95 12.28-5.7 2.85-1.84 5.56-3.95 8.1-6.34 2.55-2.38 4.76-4.93 6.65-7.63l-5.96-29.45-21.32 13.76c-.7.45-1.37.53-2.02.24-.64-.29-1.23-1.04-1.76-2.26-.25-.58-.51-1.37-.8-2.38-.28-1-.54-2.08-.77-3.23-.24-1.15-.43-2.34-.59-3.57-.16-1.23-.19-2.4-.11-3.49.09-1.09.28-2.07.58-2.94.3-.86.77-1.5 1.41-1.91l38.18-24.64c1.92-1.24 3.56-1.49 4.93-.73 1.37.75 2.32 2.44 2.85 5.07l10.32 51.02c.24 1.25.35 2.39.34 3.4-.01 1.01-.17 2.02-.48 3.04-.34 1.11-1.47 2.9-3.39 5.36-1.92 2.46-4.35 5.24-7.3 8.33-2.95 3.09-6.35 6.29-10.21 9.6s-7.94 6.35-12.25 9.14c-8.1 5.23-15.63 8.9-22.6 11.02-6.97 2.13-13.34 2.69-19.09 1.68-5.75-1-10.85-3.48-15.3-7.44-4.46-3.96-8.18-9.42-11.17-16.39-2.7-6.27-4.66-12.88-5.89-19.81-1.23-6.92-1.66-13.98-1.29-21.16.37-7.18 1.56-14.37 3.56-21.57 2-7.19 4.91-14.18 8.74-20.95 3.82-6.77 8.56-13.19 14.21-19.25 5.66-6.06 12.32-11.57 20.01-16.54 4.25-2.74 8.41-5 12.48-6.78 4.07-1.77 7.81-3.15 11.23-4.13 3.41-.98 6.37-1.57 8.88-1.78 2.51-.21 4.24-.23 5.17-.05.93.18 1.67.57 2.23 1.17C2219.22 696.08 2219.74 696.94 2220.21 698.04zM1871.28 1192.62c.2.47.44 1.16.73 2.09.29.93.57 1.97.84 3.13.28 1.16.51 2.36.71 3.6.2 1.25.3 2.44.31 3.58.01 1.15-.1 2.16-.31 3.04-.21.88-.58 1.49-1.11 1.83-.81.53-1.99.82-3.53.89-1.53.06-3.37.24-5.51.55-2.14.31-4.56.86-7.26 1.68-2.7.82-5.56 2.2-8.59 4.15-3.14 2.03-5.62 4.19-7.43 6.47-1.81 2.28-3.1 4.59-3.89 6.91-.78 2.33-1.13 4.59-1.04 6.8.09 2.21.53 4.21 1.3 6.01.9 2.09 2.22 3.6 3.95 4.52 1.74.92 3.77 1.5 6.1 1.74 2.34.24 4.9.27 7.69.11 2.79-.17 5.64-.3 8.54-.39 2.9-.09 5.82-.03 8.78.18 2.96.21 5.77.84 8.45 1.89 2.68 1.05 5.16 2.65 7.42 4.79 2.25 2.14 4.18 5.05 5.75 8.7 2.35 5.46 3.42 11.25 3.22 17.35-.2 6.11-1.59 12.2-4.14 18.27-2.56 6.07-6.28 11.95-11.17 17.62-4.89 5.68-10.83 10.77-17.81 15.28-3.79 2.44-7.41 4.4-10.87 5.85-3.47 1.46-6.62 2.55-9.47 3.28-2.85.73-5.32 1.15-7.43 1.28-2.1.13-3.75.02-4.93-.32-1.19-.34-2.16-1.39-2.91-3.13-.2-.46-.44-1.2-.72-2.2-.28-1-.56-2.11-.81-3.32-.26-1.21-.49-2.47-.68-3.79-.2-1.32-.29-2.58-.28-3.77.01-1.19.13-2.24.38-3.14.24-.9.66-1.54 1.24-1.91.99-.64 2.36-.95 4.12-.93 1.75.02 3.88-.09 6.38-.33 2.5-.24 5.35-.8 8.54-1.67 3.2-.88 6.74-2.57 10.64-5.09 3.43-2.22 6.26-4.6 8.48-7.14 2.22-2.54 3.87-5.14 4.97-7.78 1.1-2.64 1.67-5.25 1.71-7.84.04-2.59-.45-5.07-1.48-7.45-.92-2.15-2.25-3.7-4.01-4.65-1.75-.95-3.77-1.55-6.08-1.81-2.3-.25-4.81-.29-7.52-.1-2.71.19-5.5.32-8.37.39-2.87.07-5.75 0-8.63-.22-2.88-.22-5.65-.86-8.3-1.93-2.66-1.07-5.12-2.69-7.39-4.86-2.27-2.17-4.22-5.15-5.84-8.93-2.25-5.23-3.27-10.73-3.07-16.5.2-5.77 1.48-11.44 3.84-17.01 2.37-5.57 5.76-10.92 10.18-16.04 4.42-5.12 9.74-9.69 15.98-13.71 2.91-1.88 5.77-3.45 8.58-4.7 2.81-1.26 5.44-2.25 7.87-2.97 2.44-.72 4.59-1.16 6.46-1.33 1.87-.16 3.2-.16 4.03.02.81.18 1.49.48 2.02.93C1870.42 1191 1870.88 1191.69 1871.28 1192.62zM2000.75 1146.23c2.2 5.11 4.08 10.88 5.65 17.29 1.57 6.41 2.55 13.15 2.94 20.21.39 7.06.02 14.29-1.11 21.7-1.13 7.41-3.26 14.67-6.37 21.77-3.13 7.1-7.44 13.95-12.93 20.54-5.5 6.59-12.41 12.58-20.74 17.95-7.05 4.55-13.6 7.78-19.66 9.68-6.06 1.91-11.64 2.43-16.74 1.56-5.1-.87-9.65-3.16-13.67-6.88-4.01-3.71-7.46-8.92-10.33-15.6-2.35-5.46-4.32-11.48-5.92-18.06-1.6-6.58-2.57-13.41-2.9-20.51-.33-7.1.11-14.34 1.32-21.73 1.21-7.39 3.39-14.62 6.52-21.69 3.13-7.07 7.44-13.84 12.92-20.31 5.47-6.47 12.32-12.35 20.53-17.65 7.05-4.55 13.61-7.76 19.68-9.64 6.07-1.88 11.65-2.36 16.73-1.44 5.08.92 9.64 3.26 13.68 7.04C1994.38 1134.23 1997.86 1139.49 2000.75 1146.23zM1977.41 1164.09c-1.52-3.55-3.3-6.5-5.32-8.87-2.02-2.37-4.33-3.98-6.93-4.83-2.6-.85-5.53-.9-8.82-.15-3.29.75-6.97 2.44-11.05 5.07-5.06 3.27-9.1 7.12-12.11 11.55-3.01 4.43-5.27 9.13-6.77 14.11-1.5 4.98-2.35 10.11-2.54 15.39-.19 5.28.03 10.38.66 15.28.62 4.91 1.53 9.5 2.73 13.77 1.2 4.27 2.45 7.89 3.72 10.85 1.55 3.6 3.33 6.58 5.34 8.91 2.01 2.34 4.32 3.91 6.93 4.71 2.61.8 5.55.81 8.83.04 3.27-.78 6.97-2.5 11.11-5.17 5.01-3.23 9.02-7.05 12.04-11.45 3.02-4.4 5.27-9.06 6.76-14 1.49-4.93 2.33-10.02 2.53-15.28.19-5.25-.01-10.31-.62-15.19-.61-4.88-1.51-9.45-2.72-13.73C1979.99 1170.84 1978.73 1167.16 1977.41 1164.09zM2120.34 1069.03c2.2 5.11 4.08 10.88 5.64 17.29s2.55 13.15 2.94 20.21c.39 7.06.02 14.3-1.1 21.71-1.13 7.41-3.26 14.67-6.38 21.77-3.12 7.1-7.44 13.95-12.93 20.54-5.5 6.59-12.41 12.58-20.74 17.95-7.05 4.55-13.6 7.78-19.66 9.68-6.06 1.91-11.64 2.43-16.73 1.56-5.1-.87-9.65-3.16-13.67-6.88-4.02-3.71-7.46-8.92-10.33-15.6-2.35-5.46-4.33-11.48-5.92-18.06-1.6-6.58-2.57-13.41-2.9-20.51-.34-7.1.11-14.34 1.32-21.73 1.21-7.39 3.38-14.62 6.52-21.69 3.13-7.07 7.44-13.84 12.92-20.31 5.47-6.47 12.32-12.35 20.53-17.65 7.04-4.55 13.61-7.76 19.68-9.64 6.08-1.88 11.65-2.36 16.73-1.45 5.08.92 9.64 3.26 13.68 7.04C2113.97 1057.03 2117.44 1062.29 2120.34 1069.03zM2096.99 1086.89c-1.52-3.55-3.3-6.5-5.32-8.87-2.02-2.37-4.33-3.98-6.93-4.83-2.59-.85-5.54-.9-8.82-.15-3.29.75-6.97 2.44-11.05 5.07-5.07 3.27-9.1 7.12-12.11 11.55-3 4.43-5.26 9.13-6.77 14.11-1.5 4.98-2.35 10.11-2.53 15.39-.19 5.28.03 10.38.65 15.28.62 4.91 1.53 9.5 2.74 13.77 1.2 4.27 2.44 7.89 3.71 10.85 1.55 3.6 3.33 6.58 5.34 8.91 2.01 2.34 4.32 3.91 6.93 4.71 2.62.8 5.55.81 8.83.04 3.27-.78 6.97-2.5 11.11-5.17 5.01-3.23 9.03-7.05 12.04-11.45 3.02-4.4 5.27-9.06 6.76-14 1.49-4.93 2.33-10.02 2.53-15.27.19-5.25-.01-10.31-.62-15.19-.6-4.88-1.51-9.45-2.72-13.72C2099.58 1093.65 2098.32 1089.97 2096.99 1086.89zM2249.69 1071.17c.34 1.49.4 2.97.18 4.45-.22 1.48-.63 2.86-1.23 4.14-.6 1.28-1.37 2.43-2.32 3.44-.94 1.02-1.99 1.9-3.15 2.65l-9.78 6.32c-2.1 1.35-3.9 2.26-5.42 2.71-1.52.46-2.98.48-4.39.05-1.41-.43-2.88-1.29-4.41-2.61-1.53-1.31-3.3-3.1-5.32-5.37l-38.34-39.61c-2.96-3.06-5.82-6.23-8.6-9.49-2.78-3.25-5.5-6.51-8.16-9.77l-.17.11c1.39 4.97 2.66 9.92 3.82 14.85 1.15 4.94 2.23 9.94 3.22 15.02l13.23 65.06c.13.66.08 1.36-.16 2.11-.24.75-.73 1.55-1.48 2.4-.75.86-1.77 1.81-3.07 2.87-1.29 1.06-2.96 2.25-5 3.56-2.04 1.32-3.75 2.31-5.14 2.98-1.38.67-2.49 1.09-3.31 1.25-.82.16-1.44.08-1.84-.26-.41-.33-.64-.85-.72-1.54l-23.26-114.61c-.65-3.07-.34-5.89.94-8.46 1.28-2.57 3.08-4.6 5.41-6.11l11.97-7.73c1.92-1.24 3.66-2.09 5.22-2.53 1.55-.45 3.02-.5 4.39-.16 1.37.34 2.75 1.03 4.13 2.07 1.37 1.04 2.86 2.46 4.45 4.25l38.7 39.94c2.51 2.54 4.89 5.12 7.17 7.73 2.27 2.61 4.59 5.2 6.96 7.76l.17-.11c-1.16-4.6-2.3-9.37-3.42-14.33-1.13-4.95-2.18-9.78-3.16-14.49l-12.11-60.11c-.13-.65-.09-1.33.13-2.03.22-.7.7-1.45 1.43-2.26.73-.81 1.74-1.71 3.01-2.72 1.28-1.01 2.93-2.17 4.98-3.49 2.04-1.32 3.75-2.33 5.16-3.05 1.4-.72 2.51-1.17 3.32-1.36.81-.19 1.42-.14 1.84.14.42.29.7.76.83 1.41L2249.69 1071.17z"></path></g><g><path fill="#ec4e84" d="M765.91,825.43c-10.62-13.35-21.25-26.7-31.87-40.06c26.41-48.49,92.99-46.52,119.4-95.01
			c10.63,13.35,21.25,26.7,31.87,40.06C858.9,778.91,792.32,776.94,765.91,825.43z"></path></g><g><path fill="#ec4e84" d="M1941.34,1499.55c-4.94,9.81-9.89,19.62-14.83,29.43c-32.45-0.85-46.22-38.78-78.66-39.63
			c4.94-9.81,9.88-19.62,14.83-29.43C1895.13,1460.77,1908.89,1498.7,1941.34,1499.55z"></path></g><g><path fill="#727ef4" d="M548.94,693.72c-5.51,14.03-10.02,28.05-29.77,42.08c-8.54-12.3-28.79-24.6-49.81-36.9
			c5.51-14.03,10.02-28.06,29.77-42.08C507.67,669.12,527.92,681.42,548.94,693.72z"></path></g><g><path fill="#727ef4" d="M1025.8,1590.54c-5.51,14.03-10.02,28.06-29.77,42.08c-8.54-12.3-28.79-24.6-49.81-36.9
			c5.51-14.03,10.02-28.06,29.77-42.09C984.53,1565.93,1004.78,1578.24,1025.8,1590.54z"></path></g><g><path fill="#727ef4" d="M1552.51,531.31c-5.51,14.03-10.02,28.06-29.77,42.08c-8.53-12.3-28.79-24.61-49.81-36.91
			c5.51-14.03,10.02-28.05,29.77-42.08C1511.23,506.71,1531.49,519.01,1552.51,531.31z"></path></g></svg>