<svg width="36" height="13" viewBox="0 0 36 13" fill="none" xmlns="http://www.w3.org/2000/svg">
<path d="M1.94531 2.03906V5.95312H6.54688V7.1875H1.94531V12H0.429688V0.804687H7.32813V2.03906H1.94531ZM10.5167 4.08594V12H9.12605V4.08594H10.5167ZM10.8136 1.60156C10.8136 1.73698 10.7849 1.86458 10.7276 1.98437C10.6755 2.09896 10.6026 2.20312 10.5089 2.29687C10.4203 2.38542 10.3136 2.45573 10.1886 2.50781C10.0688 2.5599 9.94116 2.58594 9.80574 2.58594C9.67032 2.58594 9.54272 2.5599 9.42293 2.50781C9.30835 2.45573 9.20678 2.38542 9.11824 2.29687C9.0297 2.20312 8.95939 2.09896 8.9073 1.98437C8.85522 1.86458 8.82918 1.73698 8.82918 1.60156C8.82918 1.46615 8.85522 1.33854 8.9073 1.21875C8.95939 1.09375 9.0297 0.986979 9.11824 0.898437C9.20678 0.804687 9.30835 0.73177 9.42293 0.679687C9.54272 0.627603 9.67032 0.601562 9.80574 0.601562C9.94116 0.601562 10.0688 0.627603 10.1886 0.679687C10.3136 0.73177 10.4203 0.804687 10.5089 0.898437C10.6026 0.986979 10.6755 1.09375 10.7276 1.21875C10.7849 1.33854 10.8136 1.46615 10.8136 1.60156ZM14.3811 0.492187V12H12.9905V0.492187H14.3811ZM19.208 12.125C18.583 12.125 18.1012 11.9505 17.7627 11.6016C17.4294 11.2526 17.2627 10.75 17.2627 10.0937V5.25H16.3096C16.2262 5.25 16.1559 5.22656 16.0986 5.17969C16.0413 5.1276 16.0127 5.04948 16.0127 4.94531V4.39062L17.3096 4.22656L17.6299 1.78125C17.6455 1.70312 17.6794 1.64062 17.7314 1.59375C17.7887 1.54167 17.8616 1.51562 17.9502 1.51562H18.6533V4.24219H20.9424V5.25H18.6533V10C18.6533 10.3333 18.734 10.5807 18.8955 10.7422C19.057 10.9036 19.2653 10.9844 19.5205 10.9844C19.6663 10.9844 19.7913 10.9661 19.8955 10.9297C20.0049 10.888 20.0986 10.8437 20.1767 10.7969C20.2549 10.75 20.32 10.7083 20.3721 10.6719C20.4294 10.6302 20.4788 10.6094 20.5205 10.6094C20.5934 10.6094 20.6585 10.6536 20.7158 10.7422L21.1221 11.4062C20.8825 11.6302 20.5934 11.8073 20.2549 11.9375C19.9163 12.0625 19.5674 12.125 19.208 12.125ZM27.7714 7.17969C27.7714 6.85677 27.7246 6.5625 27.6308 6.29687C27.5423 6.02604 27.4095 5.79427 27.2324 5.60156C27.0605 5.40365 26.8496 5.2526 26.5996 5.14844C26.3496 5.03906 26.0657 4.98437 25.748 4.98437C25.0813 4.98437 24.5527 5.17969 24.1621 5.57031C23.7766 5.95573 23.5371 6.49219 23.4433 7.17969H27.7714ZM28.8964 10.8906C28.7246 11.099 28.5188 11.2812 28.2792 11.4375C28.0397 11.5885 27.7818 11.7135 27.5058 11.8125C27.235 11.9115 26.9537 11.9844 26.6621 12.0313C26.3704 12.0833 26.0813 12.1094 25.7949 12.1094C25.248 12.1094 24.7428 12.0182 24.2792 11.8359C23.8209 11.6484 23.4225 11.3776 23.0839 11.0234C22.7506 10.6641 22.4902 10.2214 22.3027 9.69531C22.1152 9.16927 22.0214 8.5651 22.0214 7.88281C22.0214 7.33073 22.1048 6.8151 22.2714 6.33594C22.4433 5.85677 22.6881 5.44271 23.0058 5.09375C23.3235 4.73958 23.7115 4.46354 24.1699 4.26562C24.6282 4.0625 25.1438 3.96094 25.7167 3.96094C26.1907 3.96094 26.6282 4.04167 27.0292 4.20312C27.4355 4.35937 27.7845 4.58854 28.0761 4.89062C28.373 5.1875 28.6048 5.55729 28.7714 6C28.9381 6.4375 29.0214 6.9375 29.0214 7.5C29.0214 7.71875 28.998 7.86458 28.9511 7.9375C28.9042 8.01042 28.8157 8.04687 28.6855 8.04687H23.3964C23.4121 8.54687 23.4798 8.98177 23.5996 9.35156C23.7246 9.72135 23.8964 10.0312 24.1152 10.2812C24.3339 10.526 24.5943 10.7109 24.8964 10.8359C25.1985 10.9557 25.5371 11.0156 25.9121 11.0156C26.261 11.0156 26.5605 10.9766 26.8105 10.8984C27.0657 10.8151 27.2845 10.7266 27.4667 10.6328C27.649 10.5391 27.8001 10.4531 27.9199 10.375C28.0449 10.2917 28.1516 10.25 28.2402 10.25C28.3548 10.25 28.4433 10.2943 28.5058 10.3828L28.8964 10.8906ZM32.1919 5.67187C32.4419 5.13021 32.7492 4.70833 33.1138 4.40625C33.4784 4.09896 33.9237 3.94531 34.4497 3.94531C34.6164 3.94531 34.7753 3.96354 34.9263 4C35.0825 4.03646 35.2206 4.09375 35.3404 4.17187L35.2388 5.21094C35.2075 5.34115 35.1294 5.40625 35.0044 5.40625C34.9315 5.40625 34.8247 5.39062 34.6841 5.35937C34.5435 5.32812 34.3846 5.3125 34.2075 5.3125C33.9575 5.3125 33.7336 5.34896 33.5357 5.42187C33.343 5.49479 33.1685 5.60417 33.0122 5.75C32.8612 5.89062 32.7232 6.06771 32.5982 6.28125C32.4784 6.48958 32.369 6.72917 32.27 7V12H30.8716V4.08594H31.6685C31.8195 4.08594 31.9237 4.11458 31.981 4.17187C32.0383 4.22917 32.0773 4.32812 32.0982 4.46875L32.1919 5.67187Z" fill="#818995"/>
</svg>
