<svg width="21" height="15" viewBox="0 0 21 15" fill="none" xmlns="http://www.w3.org/2000/svg">
<path fill-rule="evenodd" clip-rule="evenodd" d="M2.38193 2.77778C3.05311 2.77778 3.59721 2.23369 3.59721 1.56251C3.59721 0.891327 3.05311 0.347229 2.38193 0.347229C1.71075 0.347229 1.16666 0.891327 1.16666 1.56251C1.16666 2.23369 1.71075 2.77778 2.38193 2.77778ZM7.06847 13.5417H19.154C19.6521 13.5417 20.0555 13.1531 20.0555 12.6736C20.0555 12.1942 19.6518 11.8056 19.1537 11.8056H7.06847C6.57037 11.8056 6.16666 12.1942 6.16666 12.6736C6.16666 13.1531 6.57037 13.5417 7.06847 13.5417ZM3.59721 7.46528C3.59721 8.13646 3.05311 8.68056 2.38193 8.68056C1.71075 8.68056 1.16666 8.13646 1.16666 7.46528C1.16666 6.7941 1.71075 6.25 2.38193 6.25C3.05311 6.25 3.59721 6.7941 3.59721 7.46528ZM7.06847 7.98611H19.154C19.6521 7.98611 20.0558 7.59751 20.0555 7.11806C20.0555 6.6386 19.6518 6.25 19.1537 6.25H7.06847C6.57037 6.25 6.16666 6.6386 6.16666 7.11806C6.16666 7.59751 6.57037 7.98611 7.06847 7.98611ZM3.59721 13.0209C3.59721 13.692 3.05311 14.2361 2.38193 14.2361C1.71075 14.2361 1.16666 13.692 1.16666 13.0209C1.16666 12.3497 1.71075 11.8056 2.38193 11.8056C3.05311 11.8056 3.59721 12.3497 3.59721 13.0209ZM7.06847 2.08334H19.154C19.6521 2.08334 20.0555 1.69474 20.0555 1.21528C20.0555 0.735829 19.6518 0.347229 19.1537 0.347229H7.06847C6.57037 0.347229 6.16666 0.735829 6.16666 1.21528C6.16666 1.69474 6.57037 2.08334 7.06847 2.08334Z" fill="#222455"/>
<path d="M20.0555 7.11806H19.8055V7.11821L20.0555 7.11806ZM3.34721 1.56251C3.34721 2.09562 2.91504 2.52778 2.38193 2.52778V3.02778C3.19118 3.02778 3.84721 2.37176 3.84721 1.56251H3.34721ZM2.38193 0.597229C2.91504 0.597229 3.34721 1.0294 3.34721 1.56251H3.84721C3.84721 0.753256 3.19118 0.097229 2.38193 0.097229V0.597229ZM1.41666 1.56251C1.41666 1.0294 1.84883 0.597229 2.38193 0.597229V0.097229C1.57268 0.097229 0.916656 0.753256 0.916656 1.56251H1.41666ZM2.38193 2.52778C1.84883 2.52778 1.41666 2.09562 1.41666 1.56251H0.916656C0.916656 2.37176 1.57268 3.02778 2.38193 3.02778V2.52778ZM19.154 13.2917H7.06847V13.7917H19.154V13.2917ZM19.8055 12.6736C19.8055 13.0062 19.523 13.2917 19.154 13.2917V13.7917C19.7812 13.7917 20.3055 13.3 20.3055 12.6736H19.8055ZM19.1537 12.0556C19.5228 12.0556 19.8055 12.3411 19.8055 12.6736H20.3055C20.3055 12.0472 19.7808 11.5556 19.1537 11.5556V12.0556ZM7.06847 12.0556H19.1537V11.5556H7.06847V12.0556ZM6.41666 12.6736C6.41666 12.3411 6.69936 12.0556 7.06847 12.0556V11.5556C6.44138 11.5556 5.91666 12.0472 5.91666 12.6736H6.41666ZM7.06847 13.2917C6.69936 13.2917 6.41666 13.0061 6.41666 12.6736H5.91666C5.91666 13.3001 6.44138 13.7917 7.06847 13.7917V13.2917ZM2.38193 8.93056C3.19118 8.93056 3.84721 8.27453 3.84721 7.46528H3.34721C3.34721 7.99839 2.91504 8.43056 2.38193 8.43056V8.93056ZM0.916656 7.46528C0.916656 8.27453 1.57268 8.93056 2.38193 8.93056V8.43056C1.84883 8.43056 1.41666 7.99839 1.41666 7.46528H0.916656ZM2.38193 6C1.57268 6 0.916656 6.65603 0.916656 7.46528H1.41666C1.41666 6.93217 1.84883 6.5 2.38193 6.5V6ZM3.84721 7.46528C3.84721 6.65603 3.19118 6 2.38193 6V6.5C2.91504 6.5 3.34721 6.93217 3.34721 7.46528H3.84721ZM19.154 7.73611H7.06847V8.23611H19.154V7.73611ZM19.8055 7.11821C19.8058 7.45054 19.5232 7.73611 19.154 7.73611V8.23611C19.7811 8.23611 20.3059 7.74449 20.3055 7.1179L19.8055 7.11821ZM19.1537 6.5C19.5228 6.5 19.8055 6.78558 19.8055 7.11806H20.3055C20.3055 6.49162 19.7808 6 19.1537 6V6.5ZM7.06847 6.5H19.1537V6H7.06847V6.5ZM6.41666 7.11806C6.41666 6.78558 6.69936 6.5 7.06847 6.5V6C6.44138 6 5.91666 6.49162 5.91666 7.11806H6.41666ZM7.06847 7.73611C6.69936 7.73611 6.41666 7.45054 6.41666 7.11806H5.91666C5.91666 7.74449 6.44138 8.23611 7.06847 8.23611V7.73611ZM2.38193 14.4861C3.19118 14.4861 3.84721 13.8301 3.84721 13.0209H3.34721C3.34721 13.554 2.91504 13.9861 2.38193 13.9861V14.4861ZM0.916656 13.0209C0.916656 13.8301 1.57268 14.4861 2.38193 14.4861V13.9861C1.84883 13.9861 1.41666 13.554 1.41666 13.0209H0.916656ZM2.38193 11.5556C1.57268 11.5556 0.916656 12.2116 0.916656 13.0209H1.41666C1.41666 12.4877 1.84883 12.0556 2.38193 12.0556V11.5556ZM3.84721 13.0209C3.84721 12.2116 3.19118 11.5556 2.38193 11.5556V12.0556C2.91504 12.0556 3.34721 12.4877 3.34721 13.0209H3.84721ZM19.154 1.83334H7.06847V2.33334H19.154V1.83334ZM19.8055 1.21528C19.8055 1.54787 19.523 1.83334 19.154 1.83334V2.33334C19.7812 2.33334 20.3055 1.84161 20.3055 1.21528H19.8055ZM19.1537 0.597229C19.5228 0.597229 19.8055 0.882805 19.8055 1.21528H20.3055C20.3055 0.588852 19.7808 0.097229 19.1537 0.097229V0.597229ZM7.06847 0.597229H19.1537V0.097229H7.06847V0.597229ZM6.41666 1.21528C6.41666 0.882805 6.69936 0.597229 7.06847 0.597229V0.097229C6.44138 0.097229 5.91666 0.588852 5.91666 1.21528H6.41666ZM7.06847 1.83334C6.69936 1.83334 6.41666 1.54776 6.41666 1.21528H5.91666C5.91666 1.84172 6.44138 2.33334 7.06847 2.33334V1.83334Z" fill="#222455"/>
</svg>
