<svg xmlns="http://www.w3.org/2000/svg" xmlns:xlink="http://www.w3.org/1999/xlink" aria-hidden="true" role="img" class="iconify iconify--iconoir" width="100%" height="100%" preserveAspectRatio="xMidYMid meet" viewBox="0 0 24 24"><path fill="none" stroke="currentColor" stroke-linecap="round" stroke-linejoin="round" stroke-width="1.5" d="M9 21H7a4 4 0 0 1-4-4v-6.292a4 4 0 0 1 1.927-3.421l5-3.03a4 4 0 0 1 4.146 0l5 3.03A4 4 0 0 1 21 10.707V17a4 4 0 0 1-4 4h-2m-6 0v-4a3 3 0 0 1 3-3v0a3 3 0 0 1 3 3v4m-6 0h6"></path></svg>