<?xml version="1.0" encoding="utf-8"?>
<!-- Generator: Adobe Illustrator 26.0.1, SVG Export Plug-In . SVG Version: 6.00 Build 0)  -->
<svg version="1.1" id="Layer_1" xmlns="http://www.w3.org/2000/svg" xmlns:xlink="http://www.w3.org/1999/xlink" x="0px" y="0px"
	 viewBox="0 0 1280 1280" style="enable-background:new 0 0 1280 1280;" xml:space="preserve">
<style type="text/css">
	.st0{fill:#FFFFFF;}
</style>
<g>
	<path class="st0" d="M760,888.64v173.33H520V888.64c0-66.17,53.83-120,120-120S760,822.47,760,888.64z"/>
	<path class="st0" d="M1080,553.01v335.63c0,95.57-77.75,173.33-173.33,173.33H840V888.64c0-110.28-89.72-200-200-200
		s-200,89.72-200,200v173.33h-66.66c-95.58,0-173.34-77.76-173.34-173.33V553.06c0-29.74,7.72-59.16,22.31-85.07
		c14.6-25.91,35.76-47.76,61.2-63.17l266.66-161.6c55.41-33.58,124.25-33.58,179.66,0l266.67,161.6
		c25.43,15.41,46.58,37.25,61.18,63.15C1072.28,493.88,1080,523.29,1080,553.01z"/>
</g>
</svg>
