<!DOCTYPE svg PUBLIC "-//W3C//DTD SVG 1.1//EN" "http://www.w3.org/Graphics/SVG/1.1/DTD/svg11.dtd">
<!-- Uploaded to: SVG Repo, www.svgrepo.com, Transformed by: SVG Repo Mixer Tools -->
<svg width="800px" height="800px" viewBox="-2.5 0 64 64" version="1.1" xmlns="http://www.w3.org/2000/svg" xmlns:xlink="http://www.w3.org/1999/xlink" xmlns:sketch="http://www.bohemiancoding.com/sketch/ns" fill="#000000">
<g id="SVGRepo_bgCarrier" stroke-width="0"/>
<g id="SVGRepo_tracerCarrier" stroke-linecap="round" stroke-linejoin="round"/>
<g id="SVGRepo_iconCarrier"> <title>Login</title> <desc>Created with Sketch.</desc> <defs> </defs> <g id="Page-1" stroke="none" stroke-width="1" fill="none" fill-rule="evenodd" sketch:type="MSPage"> <g id="Login" sketch:type="MSLayerGroup" transform="translate(1.000000, 1.000000)" stroke="#999999" stroke-width="2"> <path d="M39,34 L39,52 C39,53.1 38.1,54 37,54 L33,54" id="Shape" sketch:type="MSShapeGroup"> </path> <path d="M2,0 L37,0 C38.1,0 39,0.9 39,2 L39,26" id="Shape" sketch:type="MSShapeGroup"> </path> <path d="M0,2 C0,0.9 0.9,0 2,0 L31,8 C32.1,8 33,8.9 33,10 L33,60 C33,61.1 32.1,62 31,62 L2,54 C0.9,54 0,53.1 0,52 L0,2 L0,2 Z" id="Shape" sketch:type="MSShapeGroup"> </path> <circle id="Oval" sketch:type="MSShapeGroup" cx="26.5" cy="34.5" r="1.5"> </circle> <g id="Group" transform="translate(35.000000, 21.000000)" sketch:type="MSShapeGroup"> <path d="M8,13.7 L8,17.4 C8,17.7 8.2,18 8.6,18 L20.5,10.2 C20.8,10 21.1,9.9 21.1,9.6 L21.1,8.5 C21.1,8.3 20.9,8.1 20.5,7.9 L8.6,0 C8.3,0 8,0.3 8,0.6 L8,4" id="Shape"> </path> <path d="M9.9,5 L0,5" id="Shape"> </path> <path d="M9.9,13 L0,13" id="Shape"> </path> </g> </g> </g> </g>
</svg>