<svg width="71" height="18" viewBox="0 0 71 18" fill="none" xmlns="http://www.w3.org/2000/svg">
<g clip-path="url(#clip0_2_26)">
<path d="M7.15625 6.55469C7.10938 6.63281 7.05729 6.69271 7 6.73437C6.94792 6.77083 6.88281 6.78906 6.80469 6.78906C6.71615 6.78906 6.61198 6.74479 6.49219 6.65625C6.3724 6.56771 6.22135 6.47135 6.03906 6.36719C5.86198 6.25781 5.64583 6.15885 5.39063 6.07031C5.14063 5.98177 4.83594 5.9375 4.47656 5.9375C4.13802 5.9375 3.83854 5.98437 3.57813 6.07812C3.32292 6.16667 3.10677 6.28906 2.92969 6.44531C2.75781 6.60156 2.6276 6.78646 2.53906 7C2.45052 7.20833 2.40625 7.4349 2.40625 7.67969C2.40625 7.99219 2.48177 8.2526 2.63281 8.46094C2.78906 8.66406 2.99219 8.83854 3.24219 8.98437C3.4974 9.13021 3.78385 9.25781 4.10156 9.36719C4.42448 9.47135 4.7526 9.58073 5.08594 9.69531C5.42448 9.8099 5.7526 9.9401 6.07031 10.0859C6.39323 10.2266 6.67969 10.4062 6.92969 10.625C7.1849 10.8437 7.38802 11.112 7.53906 11.4297C7.69531 11.7474 7.77344 12.138 7.77344 12.6016C7.77344 13.0911 7.6901 13.5521 7.52344 13.9844C7.35677 14.4115 7.11198 14.7839 6.78906 15.1016C6.47135 15.4193 6.07813 15.6693 5.60938 15.8516C5.14583 16.0339 4.61719 16.125 4.02344 16.125C3.29427 16.125 2.63281 15.9948 2.03906 15.7344C1.44531 15.4687 0.9375 15.112 0.515625 14.6641L0.953125 13.9453C0.994792 13.888 1.04427 13.8411 1.10156 13.8047C1.16406 13.763 1.23177 13.7422 1.30469 13.7422C1.3724 13.7422 1.44792 13.7708 1.53125 13.8281C1.61979 13.8802 1.71875 13.9479 1.82813 14.0312C1.9375 14.1146 2.0625 14.2057 2.20313 14.3047C2.34375 14.4036 2.5026 14.4948 2.67969 14.5781C2.86198 14.6615 3.06771 14.7318 3.29688 14.7891C3.52604 14.8411 3.78385 14.8672 4.07031 14.8672C4.42969 14.8672 4.75 14.8177 5.03125 14.7187C5.3125 14.6198 5.54948 14.4818 5.74219 14.3047C5.9401 14.1224 6.09115 13.9062 6.19531 13.6562C6.29948 13.4062 6.35156 13.1276 6.35156 12.8203C6.35156 12.4818 6.27344 12.2057 6.11719 11.9922C5.96615 11.7734 5.76563 11.5911 5.51563 11.4453C5.26563 11.2995 4.97917 11.1771 4.65625 11.0781C4.33333 10.974 4.00521 10.8698 3.67188 10.7656C3.33854 10.6562 3.01042 10.5312 2.6875 10.3906C2.36458 10.25 2.07813 10.0677 1.82813 9.84375C1.57813 9.61979 1.375 9.34115 1.21875 9.00781C1.06771 8.66927 0.992188 8.2526 0.992188 7.75781C0.992188 7.36198 1.06771 6.97917 1.21875 6.60937C1.375 6.23958 1.59896 5.91146 1.89063 5.625C2.1875 5.33854 2.54948 5.10937 2.97656 4.9375C3.40885 4.76562 3.90365 4.67969 4.46094 4.67969C5.08594 4.67969 5.65365 4.77865 6.16406 4.97656C6.67969 5.17448 7.13281 5.46094 7.52344 5.83594L7.15625 6.55469ZM13.0177 7.96094C13.5958 7.96094 14.1166 8.05729 14.5802 8.25C15.0437 8.44271 15.4395 8.71615 15.7677 9.07031C16.0958 9.42448 16.3458 9.85417 16.5177 10.3594C16.6947 10.8594 16.7833 11.4193 16.7833 12.0391C16.7833 12.6641 16.6947 13.2266 16.5177 13.7266C16.3458 14.2266 16.0958 14.6536 15.7677 15.0078C15.4395 15.362 15.0437 15.6354 14.5802 15.8281C14.1166 16.0156 13.5958 16.1094 13.0177 16.1094C12.4343 16.1094 11.9083 16.0156 11.4395 15.8281C10.976 15.6354 10.5802 15.362 10.252 15.0078C9.92391 14.6536 9.6713 14.2266 9.49422 13.7266C9.32234 13.2266 9.23641 12.6641 9.23641 12.0391C9.23641 11.4193 9.32234 10.8594 9.49422 10.3594C9.6713 9.85417 9.92391 9.42448 10.252 9.07031C10.5802 8.71615 10.976 8.44271 11.4395 8.25C11.9083 8.05729 12.4343 7.96094 13.0177 7.96094ZM13.0177 15.0234C13.7989 15.0234 14.3822 14.763 14.7677 14.2422C15.1531 13.7161 15.3458 12.9844 15.3458 12.0469C15.3458 11.1042 15.1531 10.3698 14.7677 9.84375C14.3822 9.31771 13.7989 9.05469 13.0177 9.05469C12.6218 9.05469 12.2755 9.1224 11.9786 9.25781C11.6869 9.39323 11.4421 9.58854 11.2442 9.84375C11.0515 10.099 10.9057 10.4141 10.8067 10.7891C10.713 11.1589 10.6661 11.5781 10.6661 12.0469C10.6661 12.9844 10.8588 13.7161 11.2442 14.2422C11.6348 14.763 12.226 15.0234 13.0177 15.0234ZM20.0094 9.67187C20.2594 9.13021 20.5667 8.70833 20.9313 8.40625C21.2959 8.09896 21.7412 7.94531 22.2672 7.94531C22.4339 7.94531 22.5928 7.96354 22.7438 8C22.9001 8.03646 23.0381 8.09375 23.1579 8.17187L23.0563 9.21094C23.0251 9.34115 22.9469 9.40625 22.8219 9.40625C22.749 9.40625 22.6422 9.39062 22.5016 9.35937C22.361 9.32812 22.2021 9.3125 22.0251 9.3125C21.7751 9.3125 21.5511 9.34896 21.3532 9.42187C21.1605 9.49479 20.986 9.60417 20.8297 9.75C20.6787 9.89062 20.5407 10.0677 20.4157 10.2812C20.2959 10.4896 20.1865 10.7292 20.0876 11V16H18.6891V8.08594H19.486C19.637 8.08594 19.7412 8.11458 19.7985 8.17187C19.8558 8.22917 19.8948 8.32812 19.9157 8.46875L20.0094 9.67187ZM26.9524 16.125C26.3274 16.125 25.8456 15.9505 25.5071 15.6016C25.1737 15.2526 25.0071 14.75 25.0071 14.0937V9.25H24.0539C23.9706 9.25 23.9003 9.22656 23.843 9.17969C23.7857 9.1276 23.7571 9.04948 23.7571 8.94531V8.39062L25.0539 8.22656L25.3743 5.78125C25.3899 5.70312 25.4237 5.64062 25.4758 5.59375C25.5331 5.54167 25.606 5.51562 25.6946 5.51562H26.3977V8.24219H28.6868V9.25H26.3977V14C26.3977 14.3333 26.4784 14.5807 26.6399 14.7422C26.8013 14.9036 27.0097 14.9844 27.2649 14.9844C27.4107 14.9844 27.5357 14.9661 27.6399 14.9297C27.7493 14.888 27.843 14.8437 27.9211 14.7969C27.9993 14.75 28.0644 14.7083 28.1164 14.6719C28.1737 14.6302 28.2232 14.6094 28.2649 14.6094C28.3378 14.6094 28.4029 14.6536 28.4602 14.7422L28.8664 15.4062C28.6269 15.6302 28.3378 15.8073 27.9993 15.9375C27.6607 16.0625 27.3118 16.125 26.9524 16.125ZM35.803 14.0937C36.0582 14.4375 36.3369 14.6797 36.6389 14.8203C36.9462 14.9609 37.2822 15.0312 37.6468 15.0312C38.3915 15.0312 38.9619 14.7682 39.3577 14.2422C39.7535 13.7161 39.9514 12.9323 39.9514 11.8906C39.9514 10.9219 39.7744 10.2109 39.4202 9.75781C39.0712 9.29948 38.5712 9.07031 37.9202 9.07031C37.4671 9.07031 37.0712 9.17448 36.7327 9.38281C36.3994 9.59115 36.0895 9.88542 35.803 10.2656V14.0937ZM35.803 9.22656C36.1363 8.84115 36.5113 8.53385 36.928 8.30469C37.3499 8.07552 37.8343 7.96094 38.3811 7.96094C38.8447 7.96094 39.2613 8.04948 39.6311 8.22656C40.0061 8.40365 40.3238 8.66146 40.5843 9C40.8447 9.33333 41.0426 9.73958 41.178 10.2187C41.3186 10.6979 41.3889 11.237 41.3889 11.8359C41.3889 12.4766 41.3108 13.0599 41.1546 13.5859C40.9983 14.112 40.7718 14.5625 40.4749 14.9375C40.1832 15.3073 39.8264 15.5964 39.4046 15.8047C38.9827 16.0078 38.5087 16.1094 37.9827 16.1094C37.4619 16.1094 37.0218 16.013 36.6624 15.8203C36.3082 15.6224 35.9983 15.3437 35.7327 14.9844L35.6624 15.7031C35.6207 15.901 35.5009 16 35.303 16H34.4046V4.49219H35.803V9.22656ZM49.9197 8.08594L45.5056 18.3359C45.4587 18.4401 45.3988 18.5234 45.3259 18.5859C45.2582 18.6484 45.1514 18.6797 45.0056 18.6797H43.9743L45.4197 15.5391L42.154 8.08594H43.3572C43.4769 8.08594 43.5707 8.11719 43.6384 8.17969C43.7113 8.23698 43.7608 8.30208 43.7868 8.375L45.904 13.3594C45.9874 13.5781 46.0577 13.8073 46.115 14.0469C46.1879 13.8021 46.266 13.5703 46.3493 13.3516L48.404 8.375C48.4353 8.29167 48.4874 8.22396 48.5603 8.17187C48.6384 8.11458 48.7243 8.08594 48.8181 8.08594H49.9197Z" fill="#818995"/>
<path d="M63.2185 16.2182L57.396 10.4562C57.0254 10.0896 57.0254 9.49534 57.396 9.12898C57.7662 8.76259 58.3667 8.76259 58.737 9.12898L63.889 14.2275L69.0409 9.12913C69.4112 8.76274 70.0117 8.76274 70.3819 9.12913C70.7523 9.49552 70.7523 10.0898 70.3819 10.4563L64.5593 16.2184C64.3741 16.4016 64.1316 16.4931 63.889 16.4931C63.6463 16.4931 63.4036 16.4014 63.2185 16.2182Z" fill="#A0A9BD"/>
</g>
<defs>
<clipPath id="clip0_2_26">
<rect width="71" height="18" fill="white"/>
</clipPath>
</defs>
</svg>
